M48
; DRILL file {KiCad 8.99.0-3419-gcbbcb5ae32} date 2025-07-01T05:37:55+0800
; FORMAT={-:-/ absolute / inch / decimal}
; #@! TF.CreationDate,2025-07-01T05:37:55+08:00
; #@! TF.GenerationSoftware,Kicad,Pcbnew,8.99.0-3419-gcbbcb5ae32
; #@! TF.FileFunction,Plated,1,2,PTH
FMAT,2
INCH
; #@! TA.AperFunction,Plated,PTH,ViaDrill
T1C0.0118
; #@! TA.AperFunction,Plated,PTH,ComponentDrill
T2C0.0276
; #@! TA.AperFunction,Plated,PTH,ComponentDrill
T3C0.0350
; #@! TA.AperFunction,Plated,PTH,ComponentDrill
T4C0.0394
; #@! TA.AperFunction,Plated,PTH,ComponentDrill
T5C0.0476
; #@! TA.AperFunction,Plated,PTH,ComponentDrill
T6C0.0591
%
G90
G05
T1
X4.5295Y-2.253
X5.2461Y-2.8957
X5.3455Y-2.8199
X5.3819Y-2.4518
X5.4823Y-2.812
X5.4911Y-2.4469
X5.9281Y-2.7195
X6.0502Y-2.5305
T2
X4.6685Y-2.2022
X4.6685Y-2.4022
X4.6699Y-2.5374
X4.6699Y-2.7374
X5.1272Y-2.1953
X5.1272Y-2.3953
X5.1285Y-2.5335
X5.1285Y-2.7335
T3
X5.6061Y-2.1374
X5.6061Y-2.2374
X5.6061Y-2.3374
X5.6061Y-2.4374
X5.6061Y-2.5374
X5.6061Y-2.6374
X5.6061Y-2.7374
X6.2061Y-2.1374
X6.2061Y-2.2374
X6.2061Y-2.3374
X6.2061Y-2.4374
X6.2061Y-2.5374
X6.2061Y-2.6374
X6.2061Y-2.7374
T4
X3.8907Y-2.3632
X3.8907Y-2.4616
X3.8907Y-2.56
X4.4616Y-2.3632
X4.4616Y-2.56
T5
X4.8469Y-2.3041
X4.8551Y-2.626
X4.9469Y-2.3041
X4.9551Y-2.626
X5.274Y-2.2953
X5.2844Y-2.6299
X5.374Y-2.2953
X5.3844Y-2.6299
T6
X4.0502Y-3.1957
X4.3002Y-3.0957
X4.887Y-3.1921
X5.137Y-3.0921
X5.7193Y-3.1921
X5.9693Y-3.0921
T6
G00X4.1604Y-2.2411
M15
G01X4.2116Y-2.2411
M16
G05
G00X4.1604Y-2.6821
M15
G01X4.2116Y-2.6821
M16
G05
M30
