%TF.GenerationSoftware,KiCad,Pcbnew,8.99.0-3419-gcbbcb5ae32*%
%TF.CreationDate,2025-07-01T05:37:36+08:00*%
%TF.ProjectId,pinder,70696e64-6572-42e6-9b69-6361645f7063,rev?*%
%TF.SameCoordinates,Original*%
%TF.FileFunction,Legend,Top*%
%TF.FilePolarity,Positive*%
%FSLAX46Y46*%
G04 Gerber Fmt 4.6, Leading zero omitted, Abs format (unit mm)*
G04 Created by KiCad (PCBNEW 8.99.0-3419-gcbbcb5ae32) date 2025-07-01 05:37:36*
%MOMM*%
%LPD*%
G01*
G04 APERTURE LIST*
%ADD10C,0.300000*%
%ADD11C,0.150000*%
%ADD12C,0.101600*%
%ADD13C,0.000000*%
%ADD14C,0.120000*%
%ADD15C,0.127000*%
%ADD16C,0.200000*%
%ADD17C,0.100000*%
%ADD18C,0.504000*%
G04 APERTURE END LIST*
D10*
X112128572Y-60474757D02*
X111985715Y-60403328D01*
X111985715Y-60403328D02*
X111771429Y-60403328D01*
X111771429Y-60403328D02*
X111557143Y-60474757D01*
X111557143Y-60474757D02*
X111414286Y-60617614D01*
X111414286Y-60617614D02*
X111342857Y-60760471D01*
X111342857Y-60760471D02*
X111271429Y-61046185D01*
X111271429Y-61046185D02*
X111271429Y-61260471D01*
X111271429Y-61260471D02*
X111342857Y-61546185D01*
X111342857Y-61546185D02*
X111414286Y-61689042D01*
X111414286Y-61689042D02*
X111557143Y-61831900D01*
X111557143Y-61831900D02*
X111771429Y-61903328D01*
X111771429Y-61903328D02*
X111914286Y-61903328D01*
X111914286Y-61903328D02*
X112128572Y-61831900D01*
X112128572Y-61831900D02*
X112200000Y-61760471D01*
X112200000Y-61760471D02*
X112200000Y-61260471D01*
X112200000Y-61260471D02*
X111914286Y-61260471D01*
X113057143Y-60403328D02*
X113057143Y-60760471D01*
X112700000Y-60617614D02*
X113057143Y-60760471D01*
X113057143Y-60760471D02*
X113414286Y-60617614D01*
X112842857Y-61046185D02*
X113057143Y-60760471D01*
X113057143Y-60760471D02*
X113271429Y-61046185D01*
X114200000Y-60403328D02*
X114200000Y-60760471D01*
X113842857Y-60617614D02*
X114200000Y-60760471D01*
X114200000Y-60760471D02*
X114557143Y-60617614D01*
X113985714Y-61046185D02*
X114200000Y-60760471D01*
X114200000Y-60760471D02*
X114414286Y-61046185D01*
X115342857Y-60403328D02*
X115342857Y-60760471D01*
X114985714Y-60617614D02*
X115342857Y-60760471D01*
X115342857Y-60760471D02*
X115700000Y-60617614D01*
X115128571Y-61046185D02*
X115342857Y-60760471D01*
X115342857Y-60760471D02*
X115557143Y-61046185D01*
X105553572Y-59299757D02*
X105410715Y-59228328D01*
X105410715Y-59228328D02*
X105196429Y-59228328D01*
X105196429Y-59228328D02*
X104982143Y-59299757D01*
X104982143Y-59299757D02*
X104839286Y-59442614D01*
X104839286Y-59442614D02*
X104767857Y-59585471D01*
X104767857Y-59585471D02*
X104696429Y-59871185D01*
X104696429Y-59871185D02*
X104696429Y-60085471D01*
X104696429Y-60085471D02*
X104767857Y-60371185D01*
X104767857Y-60371185D02*
X104839286Y-60514042D01*
X104839286Y-60514042D02*
X104982143Y-60656900D01*
X104982143Y-60656900D02*
X105196429Y-60728328D01*
X105196429Y-60728328D02*
X105339286Y-60728328D01*
X105339286Y-60728328D02*
X105553572Y-60656900D01*
X105553572Y-60656900D02*
X105625000Y-60585471D01*
X105625000Y-60585471D02*
X105625000Y-60085471D01*
X105625000Y-60085471D02*
X105339286Y-60085471D01*
X106482143Y-59228328D02*
X106482143Y-59585471D01*
X106125000Y-59442614D02*
X106482143Y-59585471D01*
X106482143Y-59585471D02*
X106839286Y-59442614D01*
X106267857Y-59871185D02*
X106482143Y-59585471D01*
X106482143Y-59585471D02*
X106696429Y-59871185D01*
X107625000Y-59228328D02*
X107625000Y-59585471D01*
X107267857Y-59442614D02*
X107625000Y-59585471D01*
X107625000Y-59585471D02*
X107982143Y-59442614D01*
X107410714Y-59871185D02*
X107625000Y-59585471D01*
X107625000Y-59585471D02*
X107839286Y-59871185D01*
X108767857Y-59228328D02*
X108767857Y-59585471D01*
X108410714Y-59442614D02*
X108767857Y-59585471D01*
X108767857Y-59585471D02*
X109125000Y-59442614D01*
X108553571Y-59871185D02*
X108767857Y-59585471D01*
X108767857Y-59585471D02*
X108982143Y-59871185D01*
X116791049Y-68712407D02*
X116648192Y-68640978D01*
X116648192Y-68640978D02*
X116433906Y-68640978D01*
X116433906Y-68640978D02*
X116219620Y-68712407D01*
X116219620Y-68712407D02*
X116076763Y-68855264D01*
X116076763Y-68855264D02*
X116005334Y-68998121D01*
X116005334Y-68998121D02*
X115933906Y-69283835D01*
X115933906Y-69283835D02*
X115933906Y-69498121D01*
X115933906Y-69498121D02*
X116005334Y-69783835D01*
X116005334Y-69783835D02*
X116076763Y-69926692D01*
X116076763Y-69926692D02*
X116219620Y-70069550D01*
X116219620Y-70069550D02*
X116433906Y-70140978D01*
X116433906Y-70140978D02*
X116576763Y-70140978D01*
X116576763Y-70140978D02*
X116791049Y-70069550D01*
X116791049Y-70069550D02*
X116862477Y-69998121D01*
X116862477Y-69998121D02*
X116862477Y-69498121D01*
X116862477Y-69498121D02*
X116576763Y-69498121D01*
X117719620Y-68640978D02*
X117719620Y-68998121D01*
X117362477Y-68855264D02*
X117719620Y-68998121D01*
X117719620Y-68998121D02*
X118076763Y-68855264D01*
X117505334Y-69283835D02*
X117719620Y-68998121D01*
X117719620Y-68998121D02*
X117933906Y-69283835D01*
X118862477Y-68640978D02*
X118862477Y-68998121D01*
X118505334Y-68855264D02*
X118862477Y-68998121D01*
X118862477Y-68998121D02*
X119219620Y-68855264D01*
X118648191Y-69283835D02*
X118862477Y-68998121D01*
X118862477Y-68998121D02*
X119076763Y-69283835D01*
X120005334Y-68640978D02*
X120005334Y-68998121D01*
X119648191Y-68855264D02*
X120005334Y-68998121D01*
X120005334Y-68998121D02*
X120362477Y-68855264D01*
X119791048Y-69283835D02*
X120005334Y-68998121D01*
X120005334Y-68998121D02*
X120219620Y-69283835D01*
D11*
X120954819Y-58641666D02*
X120478628Y-58974999D01*
X120954819Y-59213094D02*
X119954819Y-59213094D01*
X119954819Y-59213094D02*
X119954819Y-58832142D01*
X119954819Y-58832142D02*
X120002438Y-58736904D01*
X120002438Y-58736904D02*
X120050057Y-58689285D01*
X120050057Y-58689285D02*
X120145295Y-58641666D01*
X120145295Y-58641666D02*
X120288152Y-58641666D01*
X120288152Y-58641666D02*
X120383390Y-58689285D01*
X120383390Y-58689285D02*
X120431009Y-58736904D01*
X120431009Y-58736904D02*
X120478628Y-58832142D01*
X120478628Y-58832142D02*
X120478628Y-59213094D01*
X120050057Y-58260713D02*
X120002438Y-58213094D01*
X120002438Y-58213094D02*
X119954819Y-58117856D01*
X119954819Y-58117856D02*
X119954819Y-57879761D01*
X119954819Y-57879761D02*
X120002438Y-57784523D01*
X120002438Y-57784523D02*
X120050057Y-57736904D01*
X120050057Y-57736904D02*
X120145295Y-57689285D01*
X120145295Y-57689285D02*
X120240533Y-57689285D01*
X120240533Y-57689285D02*
X120383390Y-57736904D01*
X120383390Y-57736904D02*
X120954819Y-58308332D01*
X120954819Y-58308332D02*
X120954819Y-57689285D01*
X134679524Y-54954295D02*
X134679524Y-54154295D01*
X134679524Y-54154295D02*
X134870000Y-54154295D01*
X134870000Y-54154295D02*
X134984286Y-54192390D01*
X134984286Y-54192390D02*
X135060476Y-54268580D01*
X135060476Y-54268580D02*
X135098571Y-54344771D01*
X135098571Y-54344771D02*
X135136667Y-54497152D01*
X135136667Y-54497152D02*
X135136667Y-54611438D01*
X135136667Y-54611438D02*
X135098571Y-54763819D01*
X135098571Y-54763819D02*
X135060476Y-54840009D01*
X135060476Y-54840009D02*
X134984286Y-54916200D01*
X134984286Y-54916200D02*
X134870000Y-54954295D01*
X134870000Y-54954295D02*
X134679524Y-54954295D01*
X135898571Y-54954295D02*
X135441428Y-54954295D01*
X135670000Y-54954295D02*
X135670000Y-54154295D01*
X135670000Y-54154295D02*
X135593809Y-54268580D01*
X135593809Y-54268580D02*
X135517619Y-54344771D01*
X135517619Y-54344771D02*
X135441428Y-54382866D01*
X132604819Y-58466666D02*
X132128628Y-58799999D01*
X132604819Y-59038094D02*
X131604819Y-59038094D01*
X131604819Y-59038094D02*
X131604819Y-58657142D01*
X131604819Y-58657142D02*
X131652438Y-58561904D01*
X131652438Y-58561904D02*
X131700057Y-58514285D01*
X131700057Y-58514285D02*
X131795295Y-58466666D01*
X131795295Y-58466666D02*
X131938152Y-58466666D01*
X131938152Y-58466666D02*
X132033390Y-58514285D01*
X132033390Y-58514285D02*
X132081009Y-58561904D01*
X132081009Y-58561904D02*
X132128628Y-58657142D01*
X132128628Y-58657142D02*
X132128628Y-59038094D01*
X132604819Y-57514285D02*
X132604819Y-58085713D01*
X132604819Y-57799999D02*
X131604819Y-57799999D01*
X131604819Y-57799999D02*
X131747676Y-57895237D01*
X131747676Y-57895237D02*
X131842914Y-57990475D01*
X131842914Y-57990475D02*
X131890533Y-58085713D01*
X147746667Y-76153200D02*
X147889524Y-76200819D01*
X147889524Y-76200819D02*
X148127619Y-76200819D01*
X148127619Y-76200819D02*
X148222857Y-76153200D01*
X148222857Y-76153200D02*
X148270476Y-76105580D01*
X148270476Y-76105580D02*
X148318095Y-76010342D01*
X148318095Y-76010342D02*
X148318095Y-75915104D01*
X148318095Y-75915104D02*
X148270476Y-75819866D01*
X148270476Y-75819866D02*
X148222857Y-75772247D01*
X148222857Y-75772247D02*
X148127619Y-75724628D01*
X148127619Y-75724628D02*
X147937143Y-75677009D01*
X147937143Y-75677009D02*
X147841905Y-75629390D01*
X147841905Y-75629390D02*
X147794286Y-75581771D01*
X147794286Y-75581771D02*
X147746667Y-75486533D01*
X147746667Y-75486533D02*
X147746667Y-75391295D01*
X147746667Y-75391295D02*
X147794286Y-75296057D01*
X147794286Y-75296057D02*
X147841905Y-75248438D01*
X147841905Y-75248438D02*
X147937143Y-75200819D01*
X147937143Y-75200819D02*
X148175238Y-75200819D01*
X148175238Y-75200819D02*
X148318095Y-75248438D01*
X148651429Y-75200819D02*
X148889524Y-76200819D01*
X148889524Y-76200819D02*
X149080000Y-75486533D01*
X149080000Y-75486533D02*
X149270476Y-76200819D01*
X149270476Y-76200819D02*
X149508572Y-75200819D01*
X149794286Y-75200819D02*
X150413333Y-75200819D01*
X150413333Y-75200819D02*
X150080000Y-75581771D01*
X150080000Y-75581771D02*
X150222857Y-75581771D01*
X150222857Y-75581771D02*
X150318095Y-75629390D01*
X150318095Y-75629390D02*
X150365714Y-75677009D01*
X150365714Y-75677009D02*
X150413333Y-75772247D01*
X150413333Y-75772247D02*
X150413333Y-76010342D01*
X150413333Y-76010342D02*
X150365714Y-76105580D01*
X150365714Y-76105580D02*
X150318095Y-76153200D01*
X150318095Y-76153200D02*
X150222857Y-76200819D01*
X150222857Y-76200819D02*
X149937143Y-76200819D01*
X149937143Y-76200819D02*
X149841905Y-76153200D01*
X149841905Y-76153200D02*
X149794286Y-76105580D01*
X120989819Y-67156666D02*
X120513628Y-67489999D01*
X120989819Y-67728094D02*
X119989819Y-67728094D01*
X119989819Y-67728094D02*
X119989819Y-67347142D01*
X119989819Y-67347142D02*
X120037438Y-67251904D01*
X120037438Y-67251904D02*
X120085057Y-67204285D01*
X120085057Y-67204285D02*
X120180295Y-67156666D01*
X120180295Y-67156666D02*
X120323152Y-67156666D01*
X120323152Y-67156666D02*
X120418390Y-67204285D01*
X120418390Y-67204285D02*
X120466009Y-67251904D01*
X120466009Y-67251904D02*
X120513628Y-67347142D01*
X120513628Y-67347142D02*
X120513628Y-67728094D01*
X120323152Y-66299523D02*
X120989819Y-66299523D01*
X119942200Y-66537618D02*
X120656485Y-66775713D01*
X120656485Y-66775713D02*
X120656485Y-66156666D01*
X126606667Y-76153200D02*
X126749524Y-76200819D01*
X126749524Y-76200819D02*
X126987619Y-76200819D01*
X126987619Y-76200819D02*
X127082857Y-76153200D01*
X127082857Y-76153200D02*
X127130476Y-76105580D01*
X127130476Y-76105580D02*
X127178095Y-76010342D01*
X127178095Y-76010342D02*
X127178095Y-75915104D01*
X127178095Y-75915104D02*
X127130476Y-75819866D01*
X127130476Y-75819866D02*
X127082857Y-75772247D01*
X127082857Y-75772247D02*
X126987619Y-75724628D01*
X126987619Y-75724628D02*
X126797143Y-75677009D01*
X126797143Y-75677009D02*
X126701905Y-75629390D01*
X126701905Y-75629390D02*
X126654286Y-75581771D01*
X126654286Y-75581771D02*
X126606667Y-75486533D01*
X126606667Y-75486533D02*
X126606667Y-75391295D01*
X126606667Y-75391295D02*
X126654286Y-75296057D01*
X126654286Y-75296057D02*
X126701905Y-75248438D01*
X126701905Y-75248438D02*
X126797143Y-75200819D01*
X126797143Y-75200819D02*
X127035238Y-75200819D01*
X127035238Y-75200819D02*
X127178095Y-75248438D01*
X127511429Y-75200819D02*
X127749524Y-76200819D01*
X127749524Y-76200819D02*
X127940000Y-75486533D01*
X127940000Y-75486533D02*
X128130476Y-76200819D01*
X128130476Y-76200819D02*
X128368572Y-75200819D01*
X128701905Y-75296057D02*
X128749524Y-75248438D01*
X128749524Y-75248438D02*
X128844762Y-75200819D01*
X128844762Y-75200819D02*
X129082857Y-75200819D01*
X129082857Y-75200819D02*
X129178095Y-75248438D01*
X129178095Y-75248438D02*
X129225714Y-75296057D01*
X129225714Y-75296057D02*
X129273333Y-75391295D01*
X129273333Y-75391295D02*
X129273333Y-75486533D01*
X129273333Y-75486533D02*
X129225714Y-75629390D01*
X129225714Y-75629390D02*
X128654286Y-76200819D01*
X128654286Y-76200819D02*
X129273333Y-76200819D01*
X132639819Y-67056666D02*
X132163628Y-67389999D01*
X132639819Y-67628094D02*
X131639819Y-67628094D01*
X131639819Y-67628094D02*
X131639819Y-67247142D01*
X131639819Y-67247142D02*
X131687438Y-67151904D01*
X131687438Y-67151904D02*
X131735057Y-67104285D01*
X131735057Y-67104285D02*
X131830295Y-67056666D01*
X131830295Y-67056666D02*
X131973152Y-67056666D01*
X131973152Y-67056666D02*
X132068390Y-67104285D01*
X132068390Y-67104285D02*
X132116009Y-67151904D01*
X132116009Y-67151904D02*
X132163628Y-67247142D01*
X132163628Y-67247142D02*
X132163628Y-67628094D01*
X131639819Y-66723332D02*
X131639819Y-66104285D01*
X131639819Y-66104285D02*
X132020771Y-66437618D01*
X132020771Y-66437618D02*
X132020771Y-66294761D01*
X132020771Y-66294761D02*
X132068390Y-66199523D01*
X132068390Y-66199523D02*
X132116009Y-66151904D01*
X132116009Y-66151904D02*
X132211247Y-66104285D01*
X132211247Y-66104285D02*
X132449342Y-66104285D01*
X132449342Y-66104285D02*
X132544580Y-66151904D01*
X132544580Y-66151904D02*
X132592200Y-66199523D01*
X132592200Y-66199523D02*
X132639819Y-66294761D01*
X132639819Y-66294761D02*
X132639819Y-66580475D01*
X132639819Y-66580475D02*
X132592200Y-66675713D01*
X132592200Y-66675713D02*
X132544580Y-66723332D01*
X134944524Y-63454295D02*
X134944524Y-62654295D01*
X134944524Y-62654295D02*
X135135000Y-62654295D01*
X135135000Y-62654295D02*
X135249286Y-62692390D01*
X135249286Y-62692390D02*
X135325476Y-62768580D01*
X135325476Y-62768580D02*
X135363571Y-62844771D01*
X135363571Y-62844771D02*
X135401667Y-62997152D01*
X135401667Y-62997152D02*
X135401667Y-63111438D01*
X135401667Y-63111438D02*
X135363571Y-63263819D01*
X135363571Y-63263819D02*
X135325476Y-63340009D01*
X135325476Y-63340009D02*
X135249286Y-63416200D01*
X135249286Y-63416200D02*
X135135000Y-63454295D01*
X135135000Y-63454295D02*
X134944524Y-63454295D01*
X135668333Y-62654295D02*
X136163571Y-62654295D01*
X136163571Y-62654295D02*
X135896905Y-62959057D01*
X135896905Y-62959057D02*
X136011190Y-62959057D01*
X136011190Y-62959057D02*
X136087381Y-62997152D01*
X136087381Y-62997152D02*
X136125476Y-63035247D01*
X136125476Y-63035247D02*
X136163571Y-63111438D01*
X136163571Y-63111438D02*
X136163571Y-63301914D01*
X136163571Y-63301914D02*
X136125476Y-63378104D01*
X136125476Y-63378104D02*
X136087381Y-63416200D01*
X136087381Y-63416200D02*
X136011190Y-63454295D01*
X136011190Y-63454295D02*
X135782619Y-63454295D01*
X135782619Y-63454295D02*
X135706428Y-63416200D01*
X135706428Y-63416200D02*
X135668333Y-63378104D01*
D12*
X141031790Y-49564679D02*
X141031790Y-50078726D01*
X141031790Y-50078726D02*
X141062028Y-50139202D01*
X141062028Y-50139202D02*
X141092266Y-50169441D01*
X141092266Y-50169441D02*
X141152742Y-50199679D01*
X141152742Y-50199679D02*
X141273695Y-50199679D01*
X141273695Y-50199679D02*
X141334171Y-50169441D01*
X141334171Y-50169441D02*
X141364409Y-50139202D01*
X141364409Y-50139202D02*
X141394647Y-50078726D01*
X141394647Y-50078726D02*
X141394647Y-49564679D01*
X142029647Y-50199679D02*
X141666790Y-50199679D01*
X141848218Y-50199679D02*
X141848218Y-49564679D01*
X141848218Y-49564679D02*
X141787742Y-49655393D01*
X141787742Y-49655393D02*
X141727266Y-49715869D01*
X141727266Y-49715869D02*
X141666790Y-49746107D01*
D11*
X105350667Y-76243600D02*
X105493524Y-76291219D01*
X105493524Y-76291219D02*
X105731619Y-76291219D01*
X105731619Y-76291219D02*
X105826857Y-76243600D01*
X105826857Y-76243600D02*
X105874476Y-76195980D01*
X105874476Y-76195980D02*
X105922095Y-76100742D01*
X105922095Y-76100742D02*
X105922095Y-76005504D01*
X105922095Y-76005504D02*
X105874476Y-75910266D01*
X105874476Y-75910266D02*
X105826857Y-75862647D01*
X105826857Y-75862647D02*
X105731619Y-75815028D01*
X105731619Y-75815028D02*
X105541143Y-75767409D01*
X105541143Y-75767409D02*
X105445905Y-75719790D01*
X105445905Y-75719790D02*
X105398286Y-75672171D01*
X105398286Y-75672171D02*
X105350667Y-75576933D01*
X105350667Y-75576933D02*
X105350667Y-75481695D01*
X105350667Y-75481695D02*
X105398286Y-75386457D01*
X105398286Y-75386457D02*
X105445905Y-75338838D01*
X105445905Y-75338838D02*
X105541143Y-75291219D01*
X105541143Y-75291219D02*
X105779238Y-75291219D01*
X105779238Y-75291219D02*
X105922095Y-75338838D01*
X106255429Y-75291219D02*
X106493524Y-76291219D01*
X106493524Y-76291219D02*
X106684000Y-75576933D01*
X106684000Y-75576933D02*
X106874476Y-76291219D01*
X106874476Y-76291219D02*
X107112572Y-75291219D01*
X108017333Y-76291219D02*
X107445905Y-76291219D01*
X107731619Y-76291219D02*
X107731619Y-75291219D01*
X107731619Y-75291219D02*
X107636381Y-75434076D01*
X107636381Y-75434076D02*
X107541143Y-75529314D01*
X107541143Y-75529314D02*
X107445905Y-75576933D01*
X123829524Y-55179295D02*
X123829524Y-54379295D01*
X123829524Y-54379295D02*
X124020000Y-54379295D01*
X124020000Y-54379295D02*
X124134286Y-54417390D01*
X124134286Y-54417390D02*
X124210476Y-54493580D01*
X124210476Y-54493580D02*
X124248571Y-54569771D01*
X124248571Y-54569771D02*
X124286667Y-54722152D01*
X124286667Y-54722152D02*
X124286667Y-54836438D01*
X124286667Y-54836438D02*
X124248571Y-54988819D01*
X124248571Y-54988819D02*
X124210476Y-55065009D01*
X124210476Y-55065009D02*
X124134286Y-55141200D01*
X124134286Y-55141200D02*
X124020000Y-55179295D01*
X124020000Y-55179295D02*
X123829524Y-55179295D01*
X124591428Y-54455485D02*
X124629524Y-54417390D01*
X124629524Y-54417390D02*
X124705714Y-54379295D01*
X124705714Y-54379295D02*
X124896190Y-54379295D01*
X124896190Y-54379295D02*
X124972381Y-54417390D01*
X124972381Y-54417390D02*
X125010476Y-54455485D01*
X125010476Y-54455485D02*
X125048571Y-54531676D01*
X125048571Y-54531676D02*
X125048571Y-54607866D01*
X125048571Y-54607866D02*
X125010476Y-54722152D01*
X125010476Y-54722152D02*
X124553333Y-55179295D01*
X124553333Y-55179295D02*
X125048571Y-55179295D01*
X100291667Y-55732200D02*
X100434524Y-55779819D01*
X100434524Y-55779819D02*
X100672619Y-55779819D01*
X100672619Y-55779819D02*
X100767857Y-55732200D01*
X100767857Y-55732200D02*
X100815476Y-55684580D01*
X100815476Y-55684580D02*
X100863095Y-55589342D01*
X100863095Y-55589342D02*
X100863095Y-55494104D01*
X100863095Y-55494104D02*
X100815476Y-55398866D01*
X100815476Y-55398866D02*
X100767857Y-55351247D01*
X100767857Y-55351247D02*
X100672619Y-55303628D01*
X100672619Y-55303628D02*
X100482143Y-55256009D01*
X100482143Y-55256009D02*
X100386905Y-55208390D01*
X100386905Y-55208390D02*
X100339286Y-55160771D01*
X100339286Y-55160771D02*
X100291667Y-55065533D01*
X100291667Y-55065533D02*
X100291667Y-54970295D01*
X100291667Y-54970295D02*
X100339286Y-54875057D01*
X100339286Y-54875057D02*
X100386905Y-54827438D01*
X100386905Y-54827438D02*
X100482143Y-54779819D01*
X100482143Y-54779819D02*
X100720238Y-54779819D01*
X100720238Y-54779819D02*
X100863095Y-54827438D01*
X101196429Y-54779819D02*
X101434524Y-55779819D01*
X101434524Y-55779819D02*
X101625000Y-55065533D01*
X101625000Y-55065533D02*
X101815476Y-55779819D01*
X101815476Y-55779819D02*
X102053572Y-54779819D01*
X102863095Y-55113152D02*
X102863095Y-55779819D01*
X102625000Y-54732200D02*
X102386905Y-55446485D01*
X102386905Y-55446485D02*
X103005952Y-55446485D01*
X124039524Y-63354295D02*
X124039524Y-62554295D01*
X124039524Y-62554295D02*
X124230000Y-62554295D01*
X124230000Y-62554295D02*
X124344286Y-62592390D01*
X124344286Y-62592390D02*
X124420476Y-62668580D01*
X124420476Y-62668580D02*
X124458571Y-62744771D01*
X124458571Y-62744771D02*
X124496667Y-62897152D01*
X124496667Y-62897152D02*
X124496667Y-63011438D01*
X124496667Y-63011438D02*
X124458571Y-63163819D01*
X124458571Y-63163819D02*
X124420476Y-63240009D01*
X124420476Y-63240009D02*
X124344286Y-63316200D01*
X124344286Y-63316200D02*
X124230000Y-63354295D01*
X124230000Y-63354295D02*
X124039524Y-63354295D01*
X125182381Y-62820961D02*
X125182381Y-63354295D01*
X124991905Y-62516200D02*
X124801428Y-63087628D01*
X124801428Y-63087628D02*
X125296667Y-63087628D01*
D13*
%TO.C,G\u002A\u002A\u002A*%
G36*
X105471837Y-54269359D02*
G01*
X105582331Y-54430980D01*
X105692619Y-54652481D01*
X105778349Y-54882680D01*
X105815171Y-55070398D01*
X105812184Y-55115653D01*
X105744454Y-55255829D01*
X105636955Y-55244671D01*
X105505885Y-55090664D01*
X105409958Y-54905055D01*
X105285980Y-54568978D01*
X105267242Y-54349832D01*
X105353198Y-54232323D01*
X105385486Y-54218798D01*
X105471837Y-54269359D01*
G37*
G36*
X104803006Y-53769548D02*
G01*
X104837194Y-53904045D01*
X104841011Y-54168265D01*
X104839224Y-54226435D01*
X104798886Y-54601456D01*
X104712272Y-54842950D01*
X104585585Y-54937624D01*
X104512444Y-54927045D01*
X104409976Y-54961812D01*
X104364602Y-55050191D01*
X104282743Y-55193171D01*
X104172193Y-55182613D01*
X104061581Y-55024317D01*
X104045763Y-54985596D01*
X103989265Y-54725777D01*
X103984359Y-54498763D01*
X104043211Y-54294576D01*
X104141545Y-54238252D01*
X104244019Y-54325747D01*
X104312680Y-54536333D01*
X104356174Y-54706561D01*
X104404957Y-54715700D01*
X104460498Y-54561268D01*
X104524266Y-54240784D01*
X104538331Y-54155333D01*
X104607878Y-53866096D01*
X104698803Y-53739264D01*
X104731295Y-53732000D01*
X104803006Y-53769548D01*
G37*
G36*
X109069773Y-51341815D02*
G01*
X109264827Y-51412175D01*
X109298255Y-51442291D01*
X109367511Y-51593138D01*
X109288776Y-51683248D01*
X109075493Y-51702994D01*
X108953974Y-51688789D01*
X108703763Y-51671105D01*
X108526987Y-51733849D01*
X108407630Y-51831418D01*
X108244305Y-51956420D01*
X108133966Y-51956304D01*
X108097945Y-51927478D01*
X107953671Y-51853407D01*
X107764708Y-51829291D01*
X107599061Y-51854495D01*
X107524737Y-51928384D01*
X107524629Y-51932833D01*
X107598679Y-52145472D01*
X107808768Y-52263096D01*
X107957464Y-52283863D01*
X108157324Y-52315765D01*
X108235375Y-52403701D01*
X108243000Y-52478494D01*
X108273096Y-52671779D01*
X108356848Y-52712242D01*
X108455164Y-52630733D01*
X108516204Y-52510322D01*
X108436866Y-52406299D01*
X108411961Y-52387531D01*
X108315488Y-52249780D01*
X108364003Y-52129614D01*
X108527396Y-52081000D01*
X108734213Y-52147823D01*
X108850686Y-52318576D01*
X108867834Y-52548684D01*
X108776675Y-52793568D01*
X108692854Y-52902164D01*
X108573930Y-53065704D01*
X108588146Y-53177897D01*
X108602496Y-53194030D01*
X108753365Y-53254343D01*
X108895970Y-53179458D01*
X108977109Y-52997436D01*
X108977266Y-52996343D01*
X109059998Y-52833292D01*
X109174333Y-52800666D01*
X109384266Y-52725885D01*
X109524433Y-52539573D01*
X109552640Y-52399498D01*
X109499237Y-52286201D01*
X109364833Y-52272498D01*
X109210060Y-52241623D01*
X109166100Y-52136466D01*
X109227225Y-52005592D01*
X109387704Y-51897567D01*
X109410013Y-51889551D01*
X109659844Y-51863829D01*
X109820598Y-51981657D01*
X109890775Y-52241657D01*
X109894000Y-52333948D01*
X109849753Y-52591945D01*
X109738014Y-52840780D01*
X109590287Y-53027075D01*
X109443354Y-53097535D01*
X109337916Y-53164863D01*
X109212916Y-53328564D01*
X109199437Y-53351535D01*
X109051652Y-53537604D01*
X108856287Y-53602370D01*
X108782771Y-53605000D01*
X108541322Y-53563360D01*
X108359498Y-53468496D01*
X108291224Y-53405015D01*
X108243060Y-53379335D01*
X108203897Y-53415888D01*
X108162631Y-53539108D01*
X108108152Y-53773426D01*
X108029354Y-54143277D01*
X108008774Y-54240000D01*
X107922822Y-54532445D01*
X107823210Y-54711538D01*
X107726888Y-54763466D01*
X107650809Y-54674418D01*
X107622873Y-54554415D01*
X107630661Y-54376474D01*
X107675787Y-54093773D01*
X107745548Y-53763323D01*
X107827242Y-53442136D01*
X107908165Y-53187221D01*
X107947910Y-53095608D01*
X107963237Y-52920888D01*
X107912985Y-52774500D01*
X107809846Y-52581783D01*
X107572348Y-52801889D01*
X107424052Y-52949246D01*
X107390972Y-53036384D01*
X107460940Y-53114648D01*
X107492591Y-53138464D01*
X107596284Y-53247726D01*
X107557264Y-53348806D01*
X107544500Y-53362233D01*
X107450798Y-53536876D01*
X107438666Y-53617980D01*
X107375572Y-53774647D01*
X107243601Y-53913566D01*
X107132240Y-54010099D01*
X107089813Y-54113049D01*
X107108132Y-54278614D01*
X107159750Y-54489018D01*
X107215979Y-54752812D01*
X107237559Y-54956674D01*
X107230473Y-55023166D01*
X107138029Y-55123364D01*
X107022978Y-55078187D01*
X106939235Y-54938500D01*
X106879571Y-54764924D01*
X106790456Y-54486610D01*
X106690325Y-54161242D01*
X106682168Y-54134166D01*
X106585056Y-53841029D01*
X106496111Y-53624052D01*
X106432083Y-53523106D01*
X106424280Y-53520333D01*
X106317291Y-53470260D01*
X106145292Y-53346382D01*
X106102805Y-53311498D01*
X106098913Y-53308666D01*
X106778685Y-53308666D01*
X106841642Y-53453607D01*
X106885135Y-53562666D01*
X106947148Y-53666160D01*
X106992684Y-53617851D01*
X106970444Y-53477642D01*
X106886233Y-53363851D01*
X106789988Y-53288352D01*
X106778685Y-53308666D01*
X106098913Y-53308666D01*
X105923399Y-53180944D01*
X105800123Y-53160608D01*
X105710701Y-53207898D01*
X105601709Y-53354800D01*
X105630757Y-53490391D01*
X105770377Y-53567589D01*
X105917341Y-53562079D01*
X106123663Y-53558418D01*
X106226143Y-53634683D01*
X106198924Y-53757265D01*
X106123085Y-53829510D01*
X105855073Y-53936174D01*
X105588163Y-53878622D01*
X105421425Y-53747709D01*
X105267900Y-53487506D01*
X105257840Y-53217050D01*
X105392288Y-52983358D01*
X105404226Y-52972208D01*
X105513523Y-52860452D01*
X105517584Y-52769115D01*
X105416411Y-52624500D01*
X105404226Y-52609001D01*
X105286642Y-52429593D01*
X105248219Y-52324633D01*
X105660666Y-52324633D01*
X105733152Y-52455819D01*
X105906247Y-52569747D01*
X106106692Y-52621799D01*
X106262376Y-52684114D01*
X106295666Y-52800666D01*
X106325875Y-52981662D01*
X106395772Y-53117732D01*
X106474267Y-53153873D01*
X106489314Y-53143241D01*
X106536111Y-53026212D01*
X106551613Y-52922409D01*
X106494850Y-52739201D01*
X106482454Y-52723229D01*
X106742351Y-52723229D01*
X106807506Y-52782490D01*
X106919118Y-52919959D01*
X106936033Y-52995373D01*
X106958252Y-53055094D01*
X107016159Y-52951927D01*
X107023607Y-52933598D01*
X107058606Y-52738174D01*
X106972845Y-52594931D01*
X106860724Y-52507810D01*
X106786090Y-52551428D01*
X106762111Y-52587783D01*
X106742351Y-52723229D01*
X106482454Y-52723229D01*
X106335813Y-52534286D01*
X106125814Y-52357262D01*
X105916168Y-52257723D01*
X105856260Y-52250333D01*
X105704949Y-52277684D01*
X105660666Y-52324633D01*
X105248219Y-52324633D01*
X105237335Y-52294902D01*
X105237333Y-52294370D01*
X105311837Y-52124036D01*
X105501025Y-51996489D01*
X105753411Y-51921939D01*
X106017508Y-51910598D01*
X106241831Y-51972675D01*
X106352756Y-52073165D01*
X106471625Y-52183933D01*
X106663985Y-52198730D01*
X106736389Y-52188777D01*
X107019781Y-52195979D01*
X107207748Y-52300198D01*
X107307195Y-52374624D01*
X107299227Y-52347155D01*
X107290500Y-52336986D01*
X107194734Y-52114303D01*
X107213025Y-51852196D01*
X107338595Y-51629871D01*
X107352100Y-51617052D01*
X107545479Y-51511565D01*
X107815497Y-51505452D01*
X107843637Y-51508999D01*
X108152751Y-51505404D01*
X108327386Y-51435735D01*
X108531853Y-51353127D01*
X108802382Y-51321976D01*
X109069773Y-51341815D01*
G37*
G36*
X113362018Y-53306617D02*
G01*
X113414093Y-53436058D01*
X113409719Y-53725076D01*
X113348899Y-54173603D01*
X113308932Y-54396787D01*
X113288827Y-54525975D01*
X113309813Y-54563505D01*
X113396571Y-54500445D01*
X113573779Y-54327864D01*
X113616004Y-54285662D01*
X113820078Y-54101553D01*
X113986835Y-53986516D01*
X114063923Y-53964863D01*
X114137767Y-54062144D01*
X114213182Y-54268624D01*
X114276730Y-54524835D01*
X114314970Y-54771309D01*
X114314461Y-54948578D01*
X114296076Y-54992075D01*
X114162287Y-55039024D01*
X114033058Y-54961138D01*
X113960970Y-54795965D01*
X113958000Y-54750657D01*
X113926252Y-54576998D01*
X113838142Y-54556321D01*
X113704367Y-54686118D01*
X113608114Y-54832666D01*
X113450405Y-55050670D01*
X113302177Y-55119208D01*
X113124987Y-55051224D01*
X113070603Y-55013642D01*
X112996159Y-54944810D01*
X112956876Y-54848999D01*
X112949713Y-54688147D01*
X112971630Y-54424189D01*
X113002400Y-54159730D01*
X113066520Y-53724534D01*
X113137524Y-53443987D01*
X113221602Y-53303408D01*
X113324940Y-53288114D01*
X113362018Y-53306617D01*
G37*
G36*
X106422415Y-54290749D02*
G01*
X106460329Y-54462685D01*
X106465000Y-54613944D01*
X106438396Y-54855307D01*
X106372557Y-55006779D01*
X106288437Y-55042682D01*
X106206991Y-54937338D01*
X106205079Y-54932434D01*
X106169248Y-54728222D01*
X106186696Y-54503335D01*
X106245491Y-54319928D01*
X106333700Y-54240157D01*
X106338000Y-54240000D01*
X106422415Y-54290749D01*
G37*
G36*
X109174812Y-54267531D02*
G01*
X109100933Y-54495493D01*
X109097667Y-54501906D01*
X108994019Y-54722688D01*
X108927318Y-54896166D01*
X108835990Y-55031088D01*
X108708047Y-55011928D01*
X108680444Y-54987888D01*
X108622171Y-54821956D01*
X108665029Y-54589623D01*
X108796106Y-54349662D01*
X108829776Y-54308221D01*
X109012172Y-54154329D01*
X109136204Y-54147288D01*
X109174812Y-54267531D01*
G37*
G36*
X109568340Y-53897380D02*
G01*
X109646485Y-54141854D01*
X109664287Y-54237449D01*
X109721960Y-54503063D01*
X109789250Y-54705097D01*
X109821705Y-54762907D01*
X109863982Y-54903463D01*
X109803652Y-55020742D01*
X109732792Y-55044333D01*
X109631771Y-54987948D01*
X109516929Y-54879341D01*
X109426401Y-54709718D01*
X109368968Y-54469905D01*
X109346955Y-54211103D01*
X109362683Y-53984512D01*
X109418478Y-53841332D01*
X109468704Y-53816666D01*
X109568340Y-53897380D01*
G37*
G36*
X110495670Y-54088477D02*
G01*
X110502012Y-54094478D01*
X110551412Y-54222003D01*
X110507643Y-54299911D01*
X110425324Y-54454035D01*
X110347271Y-54680930D01*
X110342242Y-54699907D01*
X110251246Y-54929683D01*
X110141799Y-55028640D01*
X110034943Y-54979864D01*
X110020366Y-54958642D01*
X109978949Y-54781262D01*
X110016185Y-54562280D01*
X110109275Y-54342604D01*
X110235419Y-54163140D01*
X110371817Y-54064795D01*
X110495670Y-54088477D01*
G37*
G36*
X114819232Y-54330272D02*
G01*
X114867650Y-54476197D01*
X114840729Y-54706335D01*
X114837859Y-54716558D01*
X114738337Y-54944217D01*
X114619724Y-55031037D01*
X114524208Y-54989652D01*
X114468392Y-54832101D01*
X114492606Y-54609993D01*
X114587300Y-54404348D01*
X114718205Y-54296881D01*
X114819232Y-54330272D01*
G37*
G36*
X115401831Y-54381796D02*
G01*
X115437793Y-54570183D01*
X115439666Y-54656277D01*
X115410229Y-54880234D01*
X115338771Y-55014585D01*
X115250572Y-55032595D01*
X115179397Y-54931526D01*
X115144770Y-54726157D01*
X115170429Y-54514997D01*
X115242259Y-54362321D01*
X115312666Y-54324666D01*
X115401831Y-54381796D01*
G37*
G36*
X111081228Y-53703571D02*
G01*
X111131788Y-53888904D01*
X111147823Y-54058105D01*
X111167095Y-54299781D01*
X111197619Y-54400090D01*
X111259899Y-54386749D01*
X111340324Y-54318339D01*
X111493787Y-54222422D01*
X111599744Y-54260877D01*
X111633497Y-54373463D01*
X111548986Y-54553532D01*
X111507311Y-54614476D01*
X111369608Y-54783535D01*
X111264160Y-54871464D01*
X111249826Y-54875000D01*
X111113713Y-54902699D01*
X111044638Y-54926117D01*
X110906106Y-54910837D01*
X110864022Y-54853700D01*
X110842983Y-54708009D01*
X110835747Y-54452703D01*
X110842141Y-54188748D01*
X110866787Y-53878738D01*
X110909489Y-53708470D01*
X110978503Y-53648637D01*
X110994666Y-53647333D01*
X111081228Y-53703571D01*
G37*
G36*
X112800490Y-53923811D02*
G01*
X112831383Y-54089382D01*
X112792032Y-54312417D01*
X112691818Y-54549621D01*
X112540122Y-54757700D01*
X112483993Y-54809617D01*
X112318758Y-54930124D01*
X112207352Y-54933920D01*
X112079206Y-54819175D01*
X112060516Y-54798638D01*
X111971446Y-54624734D01*
X111936321Y-54399623D01*
X111952675Y-54180814D01*
X112018045Y-54025813D01*
X112095333Y-53986000D01*
X112201457Y-54065695D01*
X112265599Y-54282333D01*
X112308864Y-54578666D01*
X112455413Y-54218833D01*
X112560275Y-54004265D01*
X112656919Y-53875532D01*
X112689971Y-53859000D01*
X112800490Y-53923811D01*
G37*
G36*
X94665957Y-64020286D02*
G01*
X94673768Y-64251589D01*
X94676123Y-64431500D01*
X94676248Y-64729382D01*
X94670215Y-64947559D01*
X94659296Y-65043943D01*
X94657600Y-65045333D01*
X94584753Y-64994470D01*
X94530600Y-64943733D01*
X94449497Y-64759353D01*
X94442986Y-64484697D01*
X94509505Y-64180730D01*
X94552942Y-64071666D01*
X94612622Y-63951000D01*
X94647934Y-63926981D01*
X94665957Y-64020286D01*
G37*
G36*
X102349258Y-52224186D02*
G01*
X102496517Y-52395966D01*
X102512492Y-52425795D01*
X102621553Y-52711721D01*
X102607842Y-52956620D01*
X102462045Y-53211993D01*
X102345333Y-53350184D01*
X102142955Y-53616525D01*
X102053290Y-53865386D01*
X102040560Y-54006595D01*
X102008657Y-54354799D01*
X101940169Y-54618939D01*
X101846503Y-54773366D01*
X101739064Y-54792427D01*
X101703193Y-54765304D01*
X101680621Y-54658082D01*
X101670226Y-54420121D01*
X101670467Y-54089458D01*
X101679804Y-53704131D01*
X101696699Y-53302177D01*
X101719610Y-52921633D01*
X101725436Y-52853333D01*
X102049000Y-52853333D01*
X102059416Y-53096357D01*
X102096252Y-53179151D01*
X102167889Y-53109855D01*
X102220044Y-53019468D01*
X102268116Y-52834382D01*
X102248148Y-52647602D01*
X102172733Y-52528154D01*
X102127961Y-52514666D01*
X102078511Y-52589792D01*
X102051011Y-52777463D01*
X102049000Y-52853333D01*
X101725436Y-52853333D01*
X101746999Y-52600538D01*
X101777325Y-52376928D01*
X101803270Y-52293034D01*
X101954781Y-52206379D01*
X102141859Y-52176000D01*
X102349258Y-52224186D01*
G37*
G36*
X100987165Y-52468319D02*
G01*
X101219211Y-52546078D01*
X101387277Y-52655794D01*
X101522955Y-52870415D01*
X101511805Y-53102823D01*
X101367034Y-53315467D01*
X101101850Y-53470793D01*
X101100463Y-53471285D01*
X101017500Y-53539361D01*
X100966298Y-53694885D01*
X100937220Y-53973137D01*
X100931130Y-54091240D01*
X100897686Y-54424997D01*
X100836957Y-54641792D01*
X100757140Y-54724171D01*
X100666474Y-54654753D01*
X100641616Y-54532749D01*
X100622504Y-54284399D01*
X100609509Y-53952174D01*
X100602997Y-53578547D01*
X100603336Y-53205989D01*
X100608521Y-52980333D01*
X100948333Y-52980333D01*
X101016106Y-53092581D01*
X101075333Y-53107333D01*
X101187581Y-53039560D01*
X101202333Y-52980333D01*
X101134560Y-52868084D01*
X101075333Y-52853333D01*
X100963084Y-52921106D01*
X100948333Y-52980333D01*
X100608521Y-52980333D01*
X100610896Y-52876972D01*
X100626043Y-52633970D01*
X100647982Y-52521166D01*
X100776172Y-52456267D01*
X100987165Y-52468319D01*
G37*
G36*
X98465352Y-51888894D02*
G01*
X98589804Y-52014959D01*
X98611496Y-52143105D01*
X98525579Y-52215588D01*
X98493000Y-52218333D01*
X98316241Y-52299710D01*
X98177599Y-52535966D01*
X98114239Y-52755928D01*
X98082050Y-52943169D01*
X98115326Y-53005224D01*
X98237243Y-52980875D01*
X98246862Y-52977837D01*
X98452539Y-52863049D01*
X98584403Y-52739322D01*
X98706189Y-52622000D01*
X98811348Y-52636373D01*
X98863367Y-52675176D01*
X99078984Y-52749186D01*
X99285957Y-52734053D01*
X99628416Y-52724219D01*
X99915086Y-52848401D01*
X100178954Y-53122498D01*
X100224990Y-53186695D01*
X100468192Y-53537635D01*
X100297685Y-53766984D01*
X100062281Y-53968049D01*
X99785883Y-54034833D01*
X99517052Y-53964615D01*
X99349376Y-53820114D01*
X99222228Y-53582059D01*
X99170333Y-53335804D01*
X99164926Y-53264886D01*
X99510575Y-53264886D01*
X99531856Y-53466523D01*
X99560391Y-53566075D01*
X99675870Y-53677535D01*
X99841827Y-53688361D01*
X99973584Y-53598036D01*
X99988035Y-53568692D01*
X99966176Y-53431890D01*
X99859919Y-53252866D01*
X99716988Y-53095309D01*
X99585105Y-53022912D01*
X99578908Y-53022666D01*
X99527024Y-53094458D01*
X99510575Y-53264886D01*
X99164926Y-53264886D01*
X99156866Y-53159183D01*
X99123105Y-53128548D01*
X99079011Y-53223278D01*
X99034543Y-53422750D01*
X99001474Y-53685414D01*
X98968339Y-53961768D01*
X98920758Y-54107474D01*
X98841651Y-54161196D01*
X98789333Y-54165666D01*
X98690856Y-54143375D01*
X98634748Y-54050353D01*
X98605051Y-53847374D01*
X98594872Y-53687682D01*
X98569744Y-53209699D01*
X98311273Y-53306682D01*
X98190064Y-53355249D01*
X98116737Y-53413525D01*
X98086200Y-53515673D01*
X98093360Y-53695858D01*
X98133125Y-53988243D01*
X98171977Y-54241220D01*
X98145255Y-54397340D01*
X98035215Y-54432463D01*
X97905429Y-54341140D01*
X97826729Y-54178099D01*
X97764087Y-53933693D01*
X97754574Y-53872653D01*
X97708487Y-53648933D01*
X97630454Y-53549977D01*
X97518552Y-53530666D01*
X97330530Y-53481121D01*
X97195587Y-53364565D01*
X97163247Y-53229115D01*
X97176660Y-53198482D01*
X97288899Y-53151462D01*
X97468289Y-53160624D01*
X97611607Y-53178746D01*
X97689950Y-53133065D01*
X97734104Y-52985154D01*
X97761973Y-52794061D01*
X97842642Y-52471677D01*
X97980032Y-52188985D01*
X98149147Y-51978152D01*
X98324991Y-51871346D01*
X98465352Y-51888894D01*
G37*
G36*
X103165990Y-52886544D02*
G01*
X103192000Y-53057944D01*
X103155150Y-53247157D01*
X103069850Y-53343460D01*
X102973976Y-53319526D01*
X102930883Y-53246319D01*
X102901118Y-53040443D01*
X102955640Y-52874255D01*
X103066159Y-52811000D01*
X103165990Y-52886544D01*
G37*
G36*
X103848211Y-52874514D02*
G01*
X103930819Y-52976553D01*
X103954000Y-53107333D01*
X103911044Y-53275660D01*
X103815137Y-53344941D01*
X103715720Y-53289980D01*
X103690986Y-53241374D01*
X103670880Y-53061699D01*
X103727810Y-52917208D01*
X103834751Y-52870962D01*
X103848211Y-52874514D01*
G37*
G36*
X103051331Y-52132663D02*
G01*
X103074556Y-52151689D01*
X103121959Y-52285199D01*
X103060206Y-52403216D01*
X102980333Y-52430000D01*
X102871744Y-52368325D01*
X102848773Y-52337956D01*
X102838883Y-52208833D01*
X102928462Y-52122203D01*
X103051331Y-52132663D01*
G37*
G36*
X103803377Y-51956969D02*
G01*
X103838242Y-51984042D01*
X103891958Y-52123280D01*
X103854747Y-52271679D01*
X103748936Y-52345136D01*
X103742333Y-52345333D01*
X103637787Y-52277380D01*
X103601433Y-52212642D01*
X103597859Y-52056135D01*
X103682061Y-51954609D01*
X103803377Y-51956969D01*
G37*
G36*
X133729023Y-69462795D02*
G01*
X133895535Y-69732694D01*
X133982168Y-69961946D01*
X134110056Y-70216930D01*
X134325031Y-70368069D01*
X134615048Y-70457197D01*
X135044276Y-70612095D01*
X135263279Y-70808990D01*
X135263536Y-71034412D01*
X135101123Y-71225744D01*
X134849333Y-71389157D01*
X134654042Y-71452512D01*
X134503158Y-71518144D01*
X134503085Y-71675906D01*
X134625597Y-71867101D01*
X134842469Y-72033031D01*
X134956552Y-72081615D01*
X135346264Y-72277960D01*
X135522507Y-72508382D01*
X135492843Y-72729832D01*
X135264835Y-72899260D01*
X134846044Y-72973613D01*
X134799768Y-72974171D01*
X134411676Y-73018160D01*
X134126480Y-73182807D01*
X134011904Y-73296060D01*
X133793415Y-73565648D01*
X133651364Y-73800346D01*
X133642526Y-73822788D01*
X133488178Y-74002159D01*
X133264967Y-73989687D01*
X133096132Y-73853456D01*
X132969807Y-73749506D01*
X132814681Y-73783580D01*
X132642859Y-73892775D01*
X132312377Y-74048618D01*
X131979195Y-74094833D01*
X131715249Y-74032520D01*
X131594702Y-73876775D01*
X131606745Y-73643427D01*
X131684199Y-73299547D01*
X131732321Y-73145209D01*
X131910249Y-72623019D01*
X130601528Y-72623019D01*
X130088874Y-72628170D01*
X129398671Y-72642569D01*
X128587220Y-72664637D01*
X127710824Y-72692793D01*
X126825784Y-72725457D01*
X126541121Y-72736969D01*
X125745076Y-72768077D01*
X124767117Y-72803307D01*
X123659359Y-72840957D01*
X122473918Y-72879324D01*
X121262909Y-72916706D01*
X120078446Y-72951399D01*
X119400035Y-72970275D01*
X118249760Y-73003088D01*
X116925462Y-73043462D01*
X115487027Y-73089413D01*
X113994339Y-73138955D01*
X112507282Y-73190102D01*
X111085741Y-73240870D01*
X109860403Y-73286560D01*
X104710173Y-73483489D01*
X104750277Y-73977777D01*
X104760417Y-74265942D01*
X104703578Y-74462272D01*
X104536276Y-74641814D01*
X104236575Y-74864363D01*
X103865459Y-75141953D01*
X103524243Y-75421252D01*
X103377117Y-75554831D01*
X103049559Y-75811164D01*
X102694678Y-76006469D01*
X102421793Y-76167189D01*
X102341214Y-76369373D01*
X102343526Y-76410222D01*
X102286649Y-76623616D01*
X102073653Y-76687350D01*
X101729422Y-76600229D01*
X101432754Y-76454020D01*
X101082517Y-76172193D01*
X100927494Y-75820136D01*
X100932794Y-75750970D01*
X101425034Y-75750970D01*
X101454938Y-75951961D01*
X101604966Y-75994837D01*
X101901007Y-75889263D01*
X102297799Y-75684006D01*
X102663375Y-75458182D01*
X102960627Y-75228890D01*
X103083967Y-75098753D01*
X103273098Y-74908224D01*
X103420272Y-74846982D01*
X103640914Y-74765107D01*
X103910346Y-74566047D01*
X104152323Y-74319648D01*
X104290601Y-74095755D01*
X104300496Y-74040632D01*
X104222243Y-73784148D01*
X104154182Y-73692005D01*
X104072790Y-73540837D01*
X104183445Y-73405231D01*
X104333407Y-73202448D01*
X104359021Y-73091222D01*
X104407758Y-72989883D01*
X104585897Y-72946057D01*
X104941326Y-72949446D01*
X105002800Y-72952804D01*
X105266316Y-72956536D01*
X105732912Y-72950800D01*
X106371793Y-72936466D01*
X107152166Y-72914406D01*
X108043236Y-72885489D01*
X109014209Y-72850587D01*
X110034293Y-72810569D01*
X110035979Y-72810500D01*
X111257845Y-72762553D01*
X112644427Y-72711555D01*
X114126404Y-72659838D01*
X115634452Y-72609734D01*
X117099248Y-72563578D01*
X118451470Y-72523700D01*
X119048883Y-72507241D01*
X120219432Y-72474906D01*
X121447582Y-72439204D01*
X122682892Y-72401720D01*
X123874919Y-72364042D01*
X124973223Y-72327757D01*
X125927360Y-72294453D01*
X126540127Y-72271524D01*
X127436579Y-72237910D01*
X128346793Y-72206227D01*
X129214900Y-72178243D01*
X129985033Y-72155726D01*
X130601322Y-72140445D01*
X130806348Y-72136518D01*
X132204826Y-72113430D01*
X132290747Y-72434699D01*
X132305778Y-72816885D01*
X132209089Y-73230938D01*
X132088033Y-73590249D01*
X132065031Y-73746111D01*
X132156689Y-73714551D01*
X132379612Y-73511598D01*
X132439696Y-73453511D01*
X132722658Y-73212521D01*
X132949893Y-73122906D01*
X133175673Y-73141765D01*
X133430364Y-73159307D01*
X133625606Y-73042866D01*
X133775921Y-72860962D01*
X134025406Y-72614244D01*
X134278467Y-72499960D01*
X134298239Y-72498549D01*
X134481845Y-72486751D01*
X134439543Y-72444619D01*
X134314112Y-72392438D01*
X134123015Y-72202610D01*
X134050215Y-71886098D01*
X134098380Y-71519770D01*
X134270180Y-71180494D01*
X134271955Y-71178230D01*
X134504603Y-70882466D01*
X134131371Y-70845600D01*
X133851461Y-70773237D01*
X133689757Y-70578741D01*
X133627945Y-70419837D01*
X133497751Y-70030942D01*
X133278217Y-70273524D01*
X133077077Y-70452330D01*
X132938055Y-70516106D01*
X132773187Y-70589618D01*
X132561508Y-70756530D01*
X132460378Y-70835840D01*
X132325365Y-70898618D01*
X132125163Y-70948826D01*
X131828461Y-70990424D01*
X131403953Y-71027376D01*
X130820329Y-71063641D01*
X130046280Y-71103182D01*
X129686222Y-71120337D01*
X128731470Y-71155396D01*
X127630276Y-71179665D01*
X126470092Y-71192229D01*
X125338368Y-71192172D01*
X124322557Y-71178582D01*
X124257638Y-71177091D01*
X123423980Y-71164335D01*
X122412608Y-71160212D01*
X121279735Y-71164271D01*
X120081573Y-71176063D01*
X118874332Y-71195140D01*
X117714226Y-71221052D01*
X117293122Y-71232725D01*
X116120940Y-71264242D01*
X114783127Y-71295187D01*
X113348155Y-71324294D01*
X111884493Y-71350299D01*
X110460613Y-71371937D01*
X109144984Y-71387942D01*
X108631371Y-71392763D01*
X107428489Y-71404321D01*
X106433923Y-71417707D01*
X105621890Y-71434072D01*
X104966604Y-71454566D01*
X104442282Y-71480340D01*
X104023141Y-71512545D01*
X103683395Y-71552332D01*
X103397261Y-71600851D01*
X103247347Y-71633069D01*
X102816091Y-71739170D01*
X102588349Y-71816036D01*
X102537383Y-71876712D01*
X102632831Y-71932911D01*
X102846515Y-72067485D01*
X102864050Y-72258914D01*
X102683258Y-72533937D01*
X102574158Y-72653395D01*
X102252430Y-72989207D01*
X103143421Y-72908468D01*
X103639431Y-72875386D01*
X103945530Y-72887560D01*
X104102031Y-72947809D01*
X104126811Y-72977232D01*
X104123366Y-73163292D01*
X104025751Y-73268196D01*
X103863462Y-73491403D01*
X103832293Y-73638217D01*
X103722441Y-73943862D01*
X103421321Y-74228196D01*
X102971584Y-74460714D01*
X102491085Y-74597413D01*
X102046877Y-74693227D01*
X101776677Y-74798413D01*
X101623114Y-74957917D01*
X101528813Y-75216690D01*
X101489364Y-75382201D01*
X101425034Y-75750970D01*
X100932794Y-75750970D01*
X100962035Y-75369337D01*
X101126619Y-74908783D01*
X101308172Y-74571967D01*
X101533226Y-74348092D01*
X101859288Y-74203228D01*
X102343866Y-74103445D01*
X102538110Y-74075983D01*
X103030119Y-73966325D01*
X103302867Y-73816425D01*
X103360851Y-73654872D01*
X103208564Y-73510253D01*
X102850501Y-73411155D01*
X102429288Y-73383848D01*
X102009803Y-73374161D01*
X101770716Y-73335553D01*
X101658781Y-73253709D01*
X101628602Y-73168567D01*
X101674128Y-72935495D01*
X101837921Y-72686345D01*
X102088700Y-72419403D01*
X101848515Y-72356593D01*
X101654967Y-72233833D01*
X101608330Y-72117654D01*
X101703166Y-71912496D01*
X101941230Y-71667364D01*
X102252858Y-71439646D01*
X102568383Y-71286731D01*
X102641545Y-71266508D01*
X102932906Y-71199926D01*
X103340389Y-71103973D01*
X103607116Y-71040074D01*
X103959807Y-70977244D01*
X104415641Y-70939102D01*
X105010590Y-70924435D01*
X105780627Y-70932028D01*
X106357808Y-70947261D01*
X107001464Y-70958778D01*
X107831057Y-70960736D01*
X108798643Y-70953744D01*
X109856280Y-70938411D01*
X110956023Y-70915347D01*
X112049929Y-70885160D01*
X112552569Y-70868540D01*
X113468111Y-70840447D01*
X114578306Y-70812964D01*
X115843704Y-70786716D01*
X117224857Y-70762326D01*
X118682317Y-70740416D01*
X120176635Y-70721610D01*
X121668361Y-70706531D01*
X123118047Y-70695801D01*
X123672385Y-70692890D01*
X124959276Y-70685583D01*
X126196443Y-70675858D01*
X127360510Y-70664075D01*
X128428098Y-70650595D01*
X129375829Y-70635780D01*
X130180324Y-70619990D01*
X130818207Y-70603586D01*
X131266098Y-70586930D01*
X131485519Y-70572238D01*
X131907088Y-70517223D01*
X132145615Y-70456239D01*
X132251617Y-70367385D01*
X132275611Y-70229687D01*
X132346580Y-69934113D01*
X132451187Y-69748386D01*
X132591972Y-69590772D01*
X132696560Y-69619812D01*
X132802339Y-69748386D01*
X132931458Y-69871159D01*
X132977915Y-69838872D01*
X133066944Y-69683384D01*
X133276552Y-69506474D01*
X133533461Y-69394337D01*
X133729023Y-69462795D01*
G37*
G36*
X133427221Y-71977853D02*
G01*
X133459329Y-72004156D01*
X133524863Y-72188733D01*
X133439490Y-72351890D01*
X133329067Y-72388917D01*
X133178945Y-72303654D01*
X133147188Y-72261668D01*
X133133514Y-72083157D01*
X133257356Y-71963392D01*
X133427221Y-71977853D01*
G37*
G36*
X133544271Y-70924397D02*
G01*
X133576380Y-70950700D01*
X133641914Y-71135277D01*
X133556541Y-71298434D01*
X133446118Y-71335461D01*
X133295996Y-71250197D01*
X133264238Y-71208212D01*
X133250565Y-71029701D01*
X133374407Y-70909936D01*
X133544271Y-70924397D01*
G37*
D14*
%TO.C,R2*%
X117660000Y-56555000D02*
X117660000Y-60395000D01*
X119500000Y-56555000D02*
X119500000Y-60395000D01*
D15*
%TO.C,D1*%
X132730000Y-56734000D02*
X132730000Y-59866000D01*
X132730000Y-56734000D02*
G75*
G02*
X132730000Y-59866000I2506124J-1566000D01*
G01*
D16*
X132130000Y-58300000D02*
G75*
G02*
X131930000Y-58300000I-100000J0D01*
G01*
X131930000Y-58300000D02*
G75*
G02*
X132130000Y-58300000I100000J0D01*
G01*
D14*
%TO.C,R1*%
X129310000Y-56380000D02*
X129310000Y-60220000D01*
X131150000Y-56380000D02*
X131150000Y-60220000D01*
%TO.C,SW3*%
X142095000Y-76635000D02*
X156065000Y-76635000D01*
X142095000Y-90605000D02*
X142095000Y-76635000D01*
X156065000Y-76635000D02*
X156065000Y-90605000D01*
X156065000Y-90605000D02*
X142095000Y-90605000D01*
%TO.C,R4*%
X117695000Y-65070000D02*
X117695000Y-68910000D01*
X119535000Y-65070000D02*
X119535000Y-68910000D01*
%TO.C,SW2*%
X120955000Y-76635000D02*
X134925000Y-76635000D01*
X120955000Y-90605000D02*
X120955000Y-76635000D01*
X134925000Y-76635000D02*
X134925000Y-90605000D01*
X134925000Y-90605000D02*
X120955000Y-90605000D01*
%TO.C,R3*%
X129345000Y-64970000D02*
X129345000Y-68810000D01*
X131185000Y-64970000D02*
X131185000Y-68810000D01*
D15*
%TO.C,D3*%
X132995000Y-65234000D02*
X132995000Y-68366000D01*
X132995000Y-65234000D02*
G75*
G02*
X132995000Y-68366000I2506124J-1566000D01*
G01*
D16*
X132395000Y-66800000D02*
G75*
G02*
X132195000Y-66800000I-100000J0D01*
G01*
X132195000Y-66800000D02*
G75*
G02*
X132395000Y-66800000I100000J0D01*
G01*
D15*
%TO.C,U1*%
X141125600Y-70420200D02*
X141125600Y-53275200D01*
X143030600Y-72325200D02*
X157000600Y-72325200D01*
X145520600Y-51370200D02*
X145524328Y-50459928D01*
X146024328Y-49960200D02*
X154019600Y-49960200D01*
X154519600Y-50460200D02*
X154519600Y-51370200D01*
D17*
X157000600Y-51370200D02*
X143030600Y-51370200D01*
D15*
X157000600Y-51370200D02*
X143030600Y-51370200D01*
X158905600Y-70420200D02*
X158905600Y-53275200D01*
X141125600Y-53275200D02*
G75*
G02*
X143030600Y-51370200I1905001J-1D01*
G01*
X143030600Y-72325200D02*
G75*
G02*
X141125600Y-70420200I1J1905001D01*
G01*
X145524328Y-50459928D02*
G75*
G02*
X146024328Y-49960201I500018J-291D01*
G01*
X154019600Y-49960200D02*
G75*
G02*
X154519600Y-50460200I0J-500000D01*
G01*
X157000600Y-51370200D02*
G75*
G02*
X158905600Y-53275200I0J-1905000D01*
G01*
X158905600Y-70420200D02*
G75*
G02*
X157000600Y-72325200I-1905000J0D01*
G01*
D18*
X141317600Y-51611200D02*
G75*
G02*
X140813600Y-51611200I-252000J0D01*
G01*
X140813600Y-51611200D02*
G75*
G02*
X141317600Y-51611200I252000J0D01*
G01*
X142460600Y-52491200D02*
G75*
G02*
X141956600Y-52491200I-252000J0D01*
G01*
X141956600Y-52491200D02*
G75*
G02*
X142460600Y-52491200I252000J0D01*
G01*
D14*
%TO.C,SW1*%
X99699000Y-76725400D02*
X113669000Y-76725400D01*
X99699000Y-90695400D02*
X99699000Y-76725400D01*
X113669000Y-76725400D02*
X113669000Y-90695400D01*
X113669000Y-90695400D02*
X99699000Y-90695400D01*
D15*
%TO.C,D2*%
X121880000Y-56959000D02*
X121880000Y-60091000D01*
X121880000Y-56959000D02*
G75*
G02*
X121880000Y-60091000I2506124J-1566000D01*
G01*
D16*
X121280000Y-58525000D02*
G75*
G02*
X121080000Y-58525000I-100000J0D01*
G01*
X121080000Y-58525000D02*
G75*
G02*
X121280000Y-58525000I100000J0D01*
G01*
D14*
%TO.C,SW4*%
X98525000Y-58425000D02*
X99125000Y-58425000D01*
X98825000Y-58725000D02*
X98525000Y-58425000D01*
X99125000Y-58425000D02*
X98825000Y-58725000D01*
X100225000Y-56625000D02*
X100225000Y-68425000D01*
X104325000Y-56625000D02*
X100225000Y-56625000D01*
X104325000Y-68425000D02*
X100225000Y-68425000D01*
X105825000Y-62525000D02*
X106825000Y-62525000D01*
X106325000Y-62025000D02*
X106325000Y-63025000D01*
X108325000Y-56625000D02*
X112425000Y-56625000D01*
X112425000Y-56625000D02*
X112425000Y-59025000D01*
X112425000Y-61225000D02*
X112425000Y-63825000D01*
X112425000Y-66025000D02*
X112425000Y-68425000D01*
X112425000Y-68425000D02*
X108325000Y-68425000D01*
X109325000Y-62525000D02*
G75*
G02*
X103325000Y-62525000I-3000000J0D01*
G01*
X103325000Y-62525000D02*
G75*
G02*
X109325000Y-62525000I3000000J0D01*
G01*
D15*
%TO.C,D4*%
X122090000Y-65134000D02*
X122090000Y-68266000D01*
X122090000Y-65134000D02*
G75*
G02*
X122090000Y-68266000I2506124J-1566000D01*
G01*
D16*
X121490000Y-66700000D02*
G75*
G02*
X121290000Y-66700000I-100000J0D01*
G01*
X121290000Y-66700000D02*
G75*
G02*
X121490000Y-66700000I100000J0D01*
G01*
%TD*%
M02*
