%TF.GenerationSoftware,KiCad,Pcbnew,8.99.0-3419-gcbbcb5ae32*%
%TF.CreationDate,2025-07-01T05:37:36+08:00*%
%TF.ProjectId,pinder,70696e64-6572-42e6-9b69-6361645f7063,rev?*%
%TF.SameCoordinates,Original*%
%TF.FileFunction,Soldermask,Top*%
%TF.FilePolarity,Negative*%
%FSLAX46Y46*%
G04 Gerber Fmt 4.6, Leading zero omitted, Abs format (unit mm)*
G04 Created by KiCad (PCBNEW 8.99.0-3419-gcbbcb5ae32) date 2025-07-01 05:37:36*
%MOMM*%
%LPD*%
G01*
G04 APERTURE LIST*
G04 Aperture macros list*
%AMRoundRect*
0 Rectangle with rounded corners*
0 $1 Rounding radius*
0 $2 $3 $4 $5 $6 $7 $8 $9 X,Y pos of 4 corners*
0 Add a 4 corners polygon primitive as box body*
4,1,4,$2,$3,$4,$5,$6,$7,$8,$9,$2,$3,0*
0 Add four circle primitives for the rounded corners*
1,1,$1+$1,$2,$3*
1,1,$1+$1,$4,$5*
1,1,$1+$1,$6,$7*
1,1,$1+$1,$8,$9*
0 Add four rect primitives between the rounded corners*
20,1,$1+$1,$2,$3,$4,$5,0*
20,1,$1+$1,$4,$5,$6,$7,0*
20,1,$1+$1,$6,$7,$8,$9,0*
20,1,$1+$1,$8,$9,$2,$3,0*%
G04 Aperture macros list end*
%ADD10C,1.400000*%
%ADD11O,1.400000X1.400000*%
%ADD12C,2.019000*%
%ADD13RoundRect,0.102000X-0.907500X-0.907500X0.907500X-0.907500X0.907500X0.907500X-0.907500X0.907500X0*%
%ADD14C,1.700000*%
%ADD15C,4.000000*%
%ADD16C,2.200000*%
%ADD17RoundRect,0.152400X1.063600X0.609600X-1.063600X0.609600X-1.063600X-0.609600X1.063600X-0.609600X0*%
%ADD18C,1.524000*%
%ADD19RoundRect,0.152400X-1.063600X-0.609600X1.063600X-0.609600X1.063600X0.609600X-1.063600X0.609600X0*%
%ADD20R,2.000000X2.000000*%
%ADD21C,2.000000*%
%ADD22R,3.200000X2.000000*%
G04 APERTURE END LIST*
D10*
%TO.C,R2*%
X118580000Y-55935000D03*
D11*
X118580000Y-61015000D03*
%TD*%
D12*
%TO.C,D1*%
X136500000Y-58300000D03*
D13*
X133960000Y-58300000D03*
%TD*%
D10*
%TO.C,R1*%
X130230000Y-55760000D03*
D11*
X130230000Y-60840000D03*
%TD*%
D14*
%TO.C,SW3*%
X144000000Y-83620000D03*
D15*
X149080000Y-83620000D03*
D14*
X154160000Y-83620000D03*
D16*
X151620000Y-78540000D03*
X145270000Y-81080000D03*
%TD*%
D10*
%TO.C,R4*%
X118615000Y-64450000D03*
D11*
X118615000Y-69530000D03*
%TD*%
D14*
%TO.C,SW2*%
X122860000Y-83620000D03*
D15*
X127940000Y-83620000D03*
D14*
X133020000Y-83620000D03*
D16*
X130480000Y-78540000D03*
X124130000Y-81080000D03*
%TD*%
D10*
%TO.C,R3*%
X130265000Y-64350000D03*
D11*
X130265000Y-69430000D03*
%TD*%
D12*
%TO.C,D3*%
X136765000Y-66800000D03*
D13*
X134225000Y-66800000D03*
%TD*%
D17*
%TO.C,U1*%
X141560600Y-54291200D03*
D18*
X142395600Y-54291200D03*
D17*
X141560600Y-56831200D03*
D18*
X142395600Y-56831200D03*
D17*
X141560600Y-59371200D03*
D18*
X142395600Y-59371200D03*
D17*
X141560600Y-61911200D03*
D18*
X142395600Y-61911200D03*
D17*
X141560600Y-64451200D03*
D18*
X142395600Y-64451200D03*
D17*
X141560600Y-66991200D03*
D18*
X142395600Y-66991200D03*
D17*
X141560600Y-69531200D03*
D18*
X142395600Y-69531200D03*
X157635600Y-69531200D03*
D19*
X158470600Y-69531200D03*
D18*
X157635600Y-66991200D03*
D19*
X158470600Y-66991200D03*
D18*
X157635600Y-64451200D03*
D19*
X158470600Y-64451200D03*
D18*
X157635600Y-61911200D03*
D19*
X158470600Y-61911200D03*
D18*
X157635600Y-59371200D03*
D19*
X158470600Y-59371200D03*
D18*
X157635600Y-56831200D03*
D19*
X158470600Y-56831200D03*
D18*
X157635600Y-54291200D03*
D19*
X158470600Y-54291200D03*
%TD*%
D14*
%TO.C,SW1*%
X101604000Y-83710400D03*
D15*
X106684000Y-83710400D03*
D14*
X111764000Y-83710400D03*
D16*
X109224000Y-78630400D03*
X102874000Y-81170400D03*
%TD*%
D12*
%TO.C,D2*%
X125650000Y-58525000D03*
D13*
X123110000Y-58525000D03*
%TD*%
D20*
%TO.C,SW4*%
X98825000Y-60025000D03*
D21*
X98825000Y-65025000D03*
X98825000Y-62525000D03*
D22*
X106325000Y-56925000D03*
X106325000Y-68125000D03*
D21*
X113325000Y-65025000D03*
X113325000Y-60025000D03*
%TD*%
D12*
%TO.C,D4*%
X125860000Y-66700000D03*
D13*
X123320000Y-66700000D03*
%TD*%
M02*
