%TF.GenerationSoftware,KiCad,Pcbnew,8.99.0-3419-gcbbcb5ae32*%
%TF.CreationDate,2025-07-01T05:37:35+08:00*%
%TF.ProjectId,pinder,70696e64-6572-42e6-9b69-6361645f7063,rev?*%
%TF.SameCoordinates,Original*%
%TF.FileFunction,Copper,L2,Bot*%
%TF.FilePolarity,Positive*%
%FSLAX46Y46*%
G04 Gerber Fmt 4.6, Leading zero omitted, Abs format (unit mm)*
G04 Created by KiCad (PCBNEW 8.99.0-3419-gcbbcb5ae32) date 2025-07-01 05:37:35*
%MOMM*%
%LPD*%
G01*
G04 APERTURE LIST*
%TA.AperFunction,ComponentPad*%
%ADD10C,1.400000*%
%TD*%
%TA.AperFunction,ComponentPad*%
%ADD11O,1.400000X1.400000*%
%TD*%
%TA.AperFunction,ComponentPad*%
%ADD12C,1.815000*%
%TD*%
%TA.AperFunction,ComponentPad*%
%ADD13R,1.815000X1.815000*%
%TD*%
%TA.AperFunction,ComponentPad*%
%ADD14C,2.200000*%
%TD*%
%TA.AperFunction,ComponentPad*%
%ADD15C,1.524000*%
%TD*%
%TA.AperFunction,ComponentPad*%
%ADD16R,2.000000X2.000000*%
%TD*%
%TA.AperFunction,ComponentPad*%
%ADD17C,2.000000*%
%TD*%
%TA.AperFunction,ComponentPad*%
%ADD18R,3.200000X2.000000*%
%TD*%
%TA.AperFunction,ViaPad*%
%ADD19C,0.600000*%
%TD*%
%TA.AperFunction,Conductor*%
%ADD20C,0.200000*%
%TD*%
G04 APERTURE END LIST*
D10*
%TO.P,R2,1*%
%TO.N,Net-(D2-PadA)*%
X118580000Y-55935000D03*
D11*
%TO.P,R2,2*%
%TO.N,LED2*%
X118580000Y-61015000D03*
%TD*%
D12*
%TO.P,D1,A*%
%TO.N,Net-(D1-PadA)*%
X136500000Y-58300000D03*
D13*
%TO.P,D1,C*%
%TO.N,unconnected-(D1-PadC)*%
X133960000Y-58300000D03*
%TD*%
D10*
%TO.P,R1,1*%
%TO.N,Net-(D1-PadA)*%
X130230000Y-55760000D03*
D11*
%TO.P,R1,2*%
%TO.N,LED1*%
X130230000Y-60840000D03*
%TD*%
D14*
%TO.P,SW3,1,1*%
%TO.N,button3*%
X151620000Y-78540000D03*
%TO.P,SW3,2,2*%
%TO.N,GND*%
X145270000Y-81080000D03*
%TD*%
D10*
%TO.P,R4,1*%
%TO.N,Net-(D4-PadA)*%
X118615000Y-64450000D03*
D11*
%TO.P,R4,2*%
%TO.N,LED4*%
X118615000Y-69530000D03*
%TD*%
D14*
%TO.P,SW2,1,1*%
%TO.N,button2*%
X130480000Y-78540000D03*
%TO.P,SW2,2,2*%
%TO.N,GND*%
X124130000Y-81080000D03*
%TD*%
D10*
%TO.P,R3,1*%
%TO.N,Net-(D3-PadA)*%
X130265000Y-64350000D03*
D11*
%TO.P,R3,2*%
%TO.N,LED3*%
X130265000Y-69430000D03*
%TD*%
D12*
%TO.P,D3,A*%
%TO.N,Net-(D3-PadA)*%
X136765000Y-66800000D03*
D13*
%TO.P,D3,C*%
%TO.N,unconnected-(D3-PadC)*%
X134225000Y-66800000D03*
%TD*%
D15*
%TO.P,U1,1,GPIO26/ADC0/A0*%
%TO.N,button1*%
X142395600Y-54291200D03*
%TO.P,U1,2,GPIO27/ADC1/A1*%
%TO.N,button2*%
X142395600Y-56831200D03*
%TO.P,U1,3,GPIO28/ADC2/A2*%
%TO.N,button3*%
X142395600Y-59371200D03*
%TO.P,U1,4,GPIO29/ADC3/A3*%
%TO.N,LED1*%
X142395600Y-61911200D03*
%TO.P,U1,5,GPIO6/SDA*%
%TO.N,LED2*%
X142395600Y-64451200D03*
%TO.P,U1,6,GPIO7/SCL*%
%TO.N,LED3*%
X142395600Y-66991200D03*
%TO.P,U1,7,GPIO0/TX*%
%TO.N,LED4*%
X142395600Y-69531200D03*
%TO.P,U1,8,GPIO1/RX*%
%TO.N,unconnected-(U1-GPIO1{slash}RX-Pad8)*%
X157635600Y-69531200D03*
%TO.P,U1,9,GPIO2/SCK*%
%TO.N,Net-(U1-GPIO2{slash}SCK)*%
X157635600Y-66991200D03*
%TO.P,U1,10,GPIO4/MISO*%
%TO.N,Net-(U1-GPIO4{slash}MISO)*%
X157635600Y-64451200D03*
%TO.P,U1,11,GPIO3/MOSI*%
%TO.N,Net-(U1-GPIO3{slash}MOSI)*%
X157635600Y-61911200D03*
%TO.P,U1,12,3V3*%
%TO.N,unconnected-(U1-3V3-Pad12)*%
X157635600Y-59371200D03*
%TO.P,U1,13,GND*%
%TO.N,GND*%
X157635600Y-56831200D03*
%TO.P,U1,14,VBUS*%
%TO.N,unconnected-(U1-VBUS-Pad14)*%
X157635600Y-54291200D03*
%TD*%
D14*
%TO.P,SW1,1,1*%
%TO.N,button1*%
X109224000Y-78630400D03*
%TO.P,SW1,2,2*%
%TO.N,GND*%
X102874000Y-81170400D03*
%TD*%
D12*
%TO.P,D2,A*%
%TO.N,Net-(D2-PadA)*%
X125650000Y-58525000D03*
D13*
%TO.P,D2,C*%
%TO.N,unconnected-(D2-PadC)*%
X123110000Y-58525000D03*
%TD*%
D16*
%TO.P,SW4,A,A*%
%TO.N,Net-(U1-GPIO4{slash}MISO)*%
X98825000Y-60025000D03*
D17*
%TO.P,SW4,B,B*%
%TO.N,Net-(U1-GPIO2{slash}SCK)*%
X98825000Y-65025000D03*
%TO.P,SW4,C,C*%
%TO.N,GND*%
X98825000Y-62525000D03*
D18*
%TO.P,SW4,MP*%
%TO.N,N/C*%
X106325000Y-56925000D03*
X106325000Y-68125000D03*
D17*
%TO.P,SW4,S1,S1*%
%TO.N,Net-(U1-GPIO3{slash}MOSI)*%
X113325000Y-65025000D03*
%TO.P,SW4,S2,S2*%
%TO.N,GND*%
X113325000Y-60025000D03*
%TD*%
D12*
%TO.P,D4,A*%
%TO.N,Net-(D4-PadA)*%
X125860000Y-66700000D03*
D13*
%TO.P,D4,C*%
%TO.N,unconnected-(D4-PadC)*%
X123320000Y-66700000D03*
%TD*%
D19*
%TO.N,Net-(U1-GPIO4{slash}MISO)*%
X136700000Y-62275000D03*
X115050000Y-57225000D03*
X139475000Y-62150000D03*
%TO.N,Net-(U1-GPIO2{slash}SCK)*%
X150575000Y-69075000D03*
X133250000Y-73550000D03*
%TO.N,Net-(U1-GPIO3{slash}MOSI)*%
X139250000Y-71425000D03*
X153675000Y-64275000D03*
X135775000Y-71625000D03*
%TD*%
D20*
%TO.N,button2*%
X139593800Y-56831200D02*
X137875000Y-58550000D01*
X137875000Y-66200922D02*
X137973500Y-66299422D01*
X137973500Y-66299422D02*
X137973500Y-71046500D01*
X142395600Y-56831200D02*
X139593800Y-56831200D01*
X137875000Y-58550000D02*
X137875000Y-66200922D01*
X137973500Y-71046500D02*
X130480000Y-78540000D01*
%TO.N,Net-(U1-GPIO4{slash}MISO)*%
X141332600Y-62150000D02*
X141332600Y-62351510D01*
X115050000Y-57225000D02*
X115175000Y-57350000D01*
X142369290Y-63388200D02*
X156572600Y-63388200D01*
X136625000Y-62350000D02*
X136700000Y-62275000D01*
X139475000Y-62150000D02*
X141332600Y-62150000D01*
X141332600Y-62351510D02*
X142369290Y-63388200D01*
X116150000Y-62350000D02*
X116350000Y-62350000D01*
X156572600Y-63388200D02*
X157635600Y-64451200D01*
X116350000Y-62350000D02*
X136625000Y-62350000D01*
X115175000Y-57350000D02*
X115175000Y-61375000D01*
X115175000Y-61375000D02*
X116150000Y-62350000D01*
%TO.N,Net-(U1-GPIO2{slash}SCK)*%
X98825000Y-65025000D02*
X98825000Y-71375000D01*
X98825000Y-71375000D02*
X100950000Y-73500000D01*
X133200000Y-73500000D02*
X133250000Y-73550000D01*
X100950000Y-73500000D02*
X133200000Y-73500000D01*
X150575000Y-69075000D02*
X152658800Y-66991200D01*
X152658800Y-66991200D02*
X157635600Y-66991200D01*
%TO.N,Net-(U1-GPIO3{slash}MOSI)*%
X135500000Y-71900000D02*
X135775000Y-71625000D01*
X142156800Y-68468200D02*
X142570800Y-68054200D01*
X113325000Y-67725000D02*
X117500000Y-71900000D01*
X142570800Y-68054200D02*
X149895800Y-68054200D01*
X141332600Y-69090890D02*
X141955290Y-68468200D01*
X139250000Y-71375000D02*
X141332600Y-69292400D01*
X113325000Y-65025000D02*
X113325000Y-67725000D01*
X141955290Y-68468200D02*
X142156800Y-68468200D01*
X139250000Y-71425000D02*
X139250000Y-71375000D01*
X117500000Y-71900000D02*
X135500000Y-71900000D01*
X149895800Y-68054200D02*
X153675000Y-64275000D01*
X141332600Y-69292400D02*
X141332600Y-69090890D01*
%TD*%
M02*
