%TF.GenerationSoftware,KiCad,Pcbnew,8.99.0-3419-gcbbcb5ae32*%
%TF.CreationDate,2025-07-01T05:37:35+08:00*%
%TF.ProjectId,pinder,70696e64-6572-42e6-9b69-6361645f7063,rev?*%
%TF.SameCoordinates,Original*%
%TF.FileFunction,Copper,L1,Top*%
%TF.FilePolarity,Positive*%
%FSLAX46Y46*%
G04 Gerber Fmt 4.6, Leading zero omitted, Abs format (unit mm)*
G04 Created by KiCad (PCBNEW 8.99.0-3419-gcbbcb5ae32) date 2025-07-01 05:37:35*
%MOMM*%
%LPD*%
G01*
G04 APERTURE LIST*
G04 Aperture macros list*
%AMRoundRect*
0 Rectangle with rounded corners*
0 $1 Rounding radius*
0 $2 $3 $4 $5 $6 $7 $8 $9 X,Y pos of 4 corners*
0 Add a 4 corners polygon primitive as box body*
4,1,4,$2,$3,$4,$5,$6,$7,$8,$9,$2,$3,0*
0 Add four circle primitives for the rounded corners*
1,1,$1+$1,$2,$3*
1,1,$1+$1,$4,$5*
1,1,$1+$1,$6,$7*
1,1,$1+$1,$8,$9*
0 Add four rect primitives between the rounded corners*
20,1,$1+$1,$2,$3,$4,$5,0*
20,1,$1+$1,$4,$5,$6,$7,0*
20,1,$1+$1,$6,$7,$8,$9,0*
20,1,$1+$1,$8,$9,$2,$3,0*%
G04 Aperture macros list end*
%TA.AperFunction,ComponentPad*%
%ADD10C,1.400000*%
%TD*%
%TA.AperFunction,ComponentPad*%
%ADD11O,1.400000X1.400000*%
%TD*%
%TA.AperFunction,ComponentPad*%
%ADD12C,1.815000*%
%TD*%
%TA.AperFunction,ComponentPad*%
%ADD13R,1.815000X1.815000*%
%TD*%
%TA.AperFunction,ComponentPad*%
%ADD14C,2.200000*%
%TD*%
%TA.AperFunction,SMDPad,CuDef*%
%ADD15RoundRect,0.152400X1.063600X0.609600X-1.063600X0.609600X-1.063600X-0.609600X1.063600X-0.609600X0*%
%TD*%
%TA.AperFunction,ComponentPad*%
%ADD16C,1.524000*%
%TD*%
%TA.AperFunction,SMDPad,CuDef*%
%ADD17RoundRect,0.152400X-1.063600X-0.609600X1.063600X-0.609600X1.063600X0.609600X-1.063600X0.609600X0*%
%TD*%
%TA.AperFunction,ComponentPad*%
%ADD18R,2.000000X2.000000*%
%TD*%
%TA.AperFunction,ComponentPad*%
%ADD19C,2.000000*%
%TD*%
%TA.AperFunction,ComponentPad*%
%ADD20R,3.200000X2.000000*%
%TD*%
%TA.AperFunction,ViaPad*%
%ADD21C,0.600000*%
%TD*%
%TA.AperFunction,Conductor*%
%ADD22C,0.200000*%
%TD*%
G04 APERTURE END LIST*
D10*
%TO.P,R2,1*%
%TO.N,Net-(D2-PadA)*%
X118580000Y-55935000D03*
D11*
%TO.P,R2,2*%
%TO.N,LED2*%
X118580000Y-61015000D03*
%TD*%
D12*
%TO.P,D1,A*%
%TO.N,Net-(D1-PadA)*%
X136500000Y-58300000D03*
D13*
%TO.P,D1,C*%
%TO.N,unconnected-(D1-PadC)*%
X133960000Y-58300000D03*
%TD*%
D10*
%TO.P,R1,1*%
%TO.N,Net-(D1-PadA)*%
X130230000Y-55760000D03*
D11*
%TO.P,R1,2*%
%TO.N,LED1*%
X130230000Y-60840000D03*
%TD*%
D14*
%TO.P,SW3,1,1*%
%TO.N,button3*%
X151620000Y-78540000D03*
%TO.P,SW3,2,2*%
%TO.N,GND*%
X145270000Y-81080000D03*
%TD*%
D10*
%TO.P,R4,1*%
%TO.N,Net-(D4-PadA)*%
X118615000Y-64450000D03*
D11*
%TO.P,R4,2*%
%TO.N,LED4*%
X118615000Y-69530000D03*
%TD*%
D14*
%TO.P,SW2,1,1*%
%TO.N,button2*%
X130480000Y-78540000D03*
%TO.P,SW2,2,2*%
%TO.N,GND*%
X124130000Y-81080000D03*
%TD*%
D10*
%TO.P,R3,1*%
%TO.N,Net-(D3-PadA)*%
X130265000Y-64350000D03*
D11*
%TO.P,R3,2*%
%TO.N,LED3*%
X130265000Y-69430000D03*
%TD*%
D12*
%TO.P,D3,A*%
%TO.N,Net-(D3-PadA)*%
X136765000Y-66800000D03*
D13*
%TO.P,D3,C*%
%TO.N,unconnected-(D3-PadC)*%
X134225000Y-66800000D03*
%TD*%
D15*
%TO.P,U1,1,GPIO26/ADC0/A0*%
%TO.N,button1*%
X141560600Y-54291200D03*
D16*
X142395600Y-54291200D03*
D15*
%TO.P,U1,2,GPIO27/ADC1/A1*%
%TO.N,button2*%
X141560600Y-56831200D03*
D16*
X142395600Y-56831200D03*
D15*
%TO.P,U1,3,GPIO28/ADC2/A2*%
%TO.N,button3*%
X141560600Y-59371200D03*
D16*
X142395600Y-59371200D03*
D15*
%TO.P,U1,4,GPIO29/ADC3/A3*%
%TO.N,LED1*%
X141560600Y-61911200D03*
D16*
X142395600Y-61911200D03*
D15*
%TO.P,U1,5,GPIO6/SDA*%
%TO.N,LED2*%
X141560600Y-64451200D03*
D16*
X142395600Y-64451200D03*
D15*
%TO.P,U1,6,GPIO7/SCL*%
%TO.N,LED3*%
X141560600Y-66991200D03*
D16*
X142395600Y-66991200D03*
D15*
%TO.P,U1,7,GPIO0/TX*%
%TO.N,LED4*%
X141560600Y-69531200D03*
D16*
X142395600Y-69531200D03*
%TO.P,U1,8,GPIO1/RX*%
%TO.N,unconnected-(U1-GPIO1{slash}RX-Pad8)*%
X157635600Y-69531200D03*
D17*
X158470600Y-69531200D03*
D16*
%TO.P,U1,9,GPIO2/SCK*%
%TO.N,Net-(U1-GPIO2{slash}SCK)*%
X157635600Y-66991200D03*
D17*
X158470600Y-66991200D03*
D16*
%TO.P,U1,10,GPIO4/MISO*%
%TO.N,Net-(U1-GPIO4{slash}MISO)*%
X157635600Y-64451200D03*
D17*
X158470600Y-64451200D03*
D16*
%TO.P,U1,11,GPIO3/MOSI*%
%TO.N,Net-(U1-GPIO3{slash}MOSI)*%
X157635600Y-61911200D03*
D17*
X158470600Y-61911200D03*
D16*
%TO.P,U1,12,3V3*%
%TO.N,unconnected-(U1-3V3-Pad12)*%
X157635600Y-59371200D03*
D17*
X158470600Y-59371200D03*
D16*
%TO.P,U1,13,GND*%
%TO.N,GND*%
X157635600Y-56831200D03*
D17*
X158470600Y-56831200D03*
D16*
%TO.P,U1,14,VBUS*%
%TO.N,unconnected-(U1-VBUS-Pad14)*%
X157635600Y-54291200D03*
D17*
X158470600Y-54291200D03*
%TD*%
D14*
%TO.P,SW1,1,1*%
%TO.N,button1*%
X109224000Y-78630400D03*
%TO.P,SW1,2,2*%
%TO.N,GND*%
X102874000Y-81170400D03*
%TD*%
D12*
%TO.P,D2,A*%
%TO.N,Net-(D2-PadA)*%
X125650000Y-58525000D03*
D13*
%TO.P,D2,C*%
%TO.N,unconnected-(D2-PadC)*%
X123110000Y-58525000D03*
%TD*%
D18*
%TO.P,SW4,A,A*%
%TO.N,Net-(U1-GPIO4{slash}MISO)*%
X98825000Y-60025000D03*
D19*
%TO.P,SW4,B,B*%
%TO.N,Net-(U1-GPIO2{slash}SCK)*%
X98825000Y-65025000D03*
%TO.P,SW4,C,C*%
%TO.N,GND*%
X98825000Y-62525000D03*
D20*
%TO.P,SW4,MP*%
%TO.N,N/C*%
X106325000Y-56925000D03*
X106325000Y-68125000D03*
D19*
%TO.P,SW4,S1,S1*%
%TO.N,Net-(U1-GPIO3{slash}MOSI)*%
X113325000Y-65025000D03*
%TO.P,SW4,S2,S2*%
%TO.N,GND*%
X113325000Y-60025000D03*
%TD*%
D12*
%TO.P,D4,A*%
%TO.N,Net-(D4-PadA)*%
X125860000Y-66700000D03*
D13*
%TO.P,D4,C*%
%TO.N,unconnected-(D4-PadC)*%
X123320000Y-66700000D03*
%TD*%
D21*
%TO.N,Net-(U1-GPIO4{slash}MISO)*%
X136700000Y-62275000D03*
X115050000Y-57225000D03*
X139475000Y-62150000D03*
%TO.N,Net-(U1-GPIO2{slash}SCK)*%
X150575000Y-69075000D03*
X133250000Y-73550000D03*
%TO.N,Net-(U1-GPIO3{slash}MOSI)*%
X139250000Y-71425000D03*
X153675000Y-64275000D03*
X135775000Y-71625000D03*
%TD*%
D22*
%TO.N,Net-(D1-PadA)*%
X133960000Y-55760000D02*
X136500000Y-58300000D01*
X130230000Y-55760000D02*
X133960000Y-55760000D01*
%TO.N,Net-(D2-PadA)*%
X118580000Y-55935000D02*
X123060000Y-55935000D01*
X123060000Y-55935000D02*
X125650000Y-58525000D01*
%TO.N,Net-(D3-PadA)*%
X134315000Y-64350000D02*
X136765000Y-66800000D01*
X130265000Y-64350000D02*
X134315000Y-64350000D01*
%TO.N,LED1*%
X141324400Y-60840000D02*
X142395600Y-61911200D01*
X130230000Y-60840000D02*
X141324400Y-60840000D01*
%TO.N,LED2*%
X141094400Y-63150000D02*
X142395600Y-64451200D01*
X118580000Y-61015000D02*
X120715000Y-63150000D01*
X120715000Y-63150000D02*
X141094400Y-63150000D01*
%TO.N,LED3*%
X138600000Y-70500000D02*
X140043600Y-69056400D01*
X140304974Y-68468200D02*
X140918600Y-68468200D01*
X131335000Y-70500000D02*
X138600000Y-70500000D01*
X140918600Y-68468200D02*
X142395600Y-66991200D01*
X130265000Y-69430000D02*
X131335000Y-70500000D01*
X140043600Y-69056400D02*
X140043600Y-68729574D01*
X140043600Y-68729574D02*
X140304974Y-68468200D01*
%TO.N,GND*%
X145270000Y-81080000D02*
X102964400Y-81080000D01*
X159875000Y-67905426D02*
X159987600Y-67792826D01*
X159875000Y-63536974D02*
X159875000Y-62825426D01*
X159987600Y-65252826D02*
X159987600Y-63649574D01*
X159987600Y-66189574D02*
X159875000Y-66076974D01*
X102874000Y-81170400D02*
X99995400Y-81170400D01*
X110825000Y-62525000D02*
X113325000Y-60025000D01*
X159987600Y-70332826D02*
X159987600Y-68729574D01*
X97575000Y-78750000D02*
X97575000Y-65614892D01*
X159987600Y-58348200D02*
X158470600Y-56831200D01*
X102964400Y-81080000D02*
X102874000Y-81170400D01*
X145270000Y-81080000D02*
X156895000Y-81080000D01*
X97524000Y-65563892D02*
X97524000Y-63826000D01*
X98825000Y-62525000D02*
X110825000Y-62525000D01*
X159987600Y-60172826D02*
X159987600Y-58348200D01*
X159987600Y-61109574D02*
X159875000Y-60996974D01*
X99995400Y-81170400D02*
X97575000Y-78750000D01*
X97524000Y-63826000D02*
X98825000Y-62525000D01*
X159950000Y-78025000D02*
X159875000Y-77950000D01*
X159987600Y-62712826D02*
X159987600Y-61109574D01*
X159987600Y-68729574D02*
X159875000Y-68616974D01*
X159875000Y-77950000D02*
X159875000Y-70445426D01*
X159875000Y-66076974D02*
X159875000Y-65365426D01*
X159875000Y-65365426D02*
X159987600Y-65252826D01*
X159875000Y-60996974D02*
X159875000Y-60285426D01*
X159875000Y-70445426D02*
X159987600Y-70332826D01*
X159875000Y-62825426D02*
X159987600Y-62712826D01*
X156895000Y-81080000D02*
X159950000Y-78025000D01*
X159875000Y-68616974D02*
X159875000Y-67905426D01*
X159987600Y-63649574D02*
X159875000Y-63536974D01*
X159875000Y-60285426D02*
X159987600Y-60172826D01*
X159987600Y-67792826D02*
X159987600Y-66189574D01*
X97575000Y-65614892D02*
X97524000Y-65563892D01*
%TO.N,button1*%
X142395600Y-54291200D02*
X116333800Y-54291200D01*
X116333800Y-54291200D02*
X116150000Y-54475000D01*
X116150000Y-54475000D02*
X116150000Y-71704400D01*
X116150000Y-71704400D02*
X109224000Y-78630400D01*
%TO.N,button3*%
X151620000Y-78540000D02*
X151620000Y-68595600D01*
X151620000Y-68595600D02*
X142395600Y-59371200D01*
%TO.N,Net-(D4-PadA)*%
X118615000Y-64450000D02*
X123610000Y-64450000D01*
X123610000Y-64450000D02*
X125860000Y-66700000D01*
%TO.N,LED4*%
X127180000Y-69530000D02*
X130575000Y-72925000D01*
X138850000Y-72925000D02*
X142243800Y-69531200D01*
X130575000Y-72925000D02*
X138850000Y-72925000D01*
X118615000Y-69530000D02*
X127180000Y-69530000D01*
X142243800Y-69531200D02*
X142395600Y-69531200D01*
%TO.N,Net-(U1-GPIO4{slash}MISO)*%
X98825000Y-60025000D02*
X107925000Y-60025000D01*
X107925000Y-60025000D02*
X110800000Y-57150000D01*
X136700000Y-62275000D02*
X139350000Y-62275000D01*
X114975000Y-57150000D02*
X115050000Y-57225000D01*
X139350000Y-62275000D02*
X139475000Y-62150000D01*
X110800000Y-57150000D02*
X114975000Y-57150000D01*
%TO.N,Net-(U1-GPIO2{slash}SCK)*%
X146100000Y-73550000D02*
X150575000Y-69075000D01*
X133250000Y-73550000D02*
X146100000Y-73550000D01*
%TO.N,Net-(U1-GPIO3{slash}MOSI)*%
X153675000Y-64275000D02*
X156038800Y-61911200D01*
X135775000Y-71625000D02*
X139050000Y-71625000D01*
X156038800Y-61911200D02*
X157635600Y-61911200D01*
X139050000Y-71625000D02*
X139250000Y-71425000D01*
%TD*%
M02*
